<svg width="19" height="30" viewBox="0 0 19 30" fill="none" xmlns="http://www.w3.org/2000/svg">
<g clip-path="url(#clip0_0_1)">
<path d="M0.30303 25.9907C0.13986 25.9907 0 26.1305 0 26.2937V29.697C0 29.8601 0.13986 30 0.30303 30H18.951C19.1142 30 19.2541 29.8601 19.2541 29.697V26.2937C19.2541 26.1305 19.1142 25.9907 18.951 25.9907H0.30303ZM18.5548 18.5082C18.3916 18.0653 13.0769 3.54312 12.8438 2.91375C12.331 1.46853 11.6783 0 9.62704 0C7.57576 0 6.92308 1.49184 6.41026 2.91375C6.15385 3.65967 0.932401 17.9487 0.72261 18.5082C0.67599 18.6713 0.745921 18.8345 0.885781 18.9044L3.98601 20.0932C4.14918 20.1399 4.31235 20.0699 4.35897 19.9068C4.40559 19.7669 5.5711 16.5967 5.68765 16.2471H13.5431C13.683 16.5967 14.8252 19.7669 14.8718 19.9068C14.9184 20.0699 15.1049 20.1399 15.2448 20.0932C15.4079 20.0466 18.1585 18.9744 18.345 18.9044C18.5315 18.8345 18.6014 18.648 18.5548 18.5082ZM6.9697 12.7273L9.62704 4.75525H9.65035L12.3077 12.7273H6.9697Z" fill="#E10148"/>
</g>
<g clip-path="url(#clip1_0_1)">
<path d="M0.30303 25.9907C0.13986 25.9907 0 26.1305 0 26.2937V29.697C0 29.8601 0.13986 30 0.30303 30H18.951C19.1142 30 19.2541 29.8601 19.2541 29.697V26.2937C19.2541 26.1305 19.1142 25.9907 18.951 25.9907H0.30303ZM18.5548 18.5082C18.3916 18.0653 13.0769 3.54312 12.8438 2.91375C12.331 1.46853 11.6783 0 9.62704 0C7.57576 0 6.92308 1.49184 6.41026 2.91375C6.15385 3.65967 0.932401 17.9487 0.72261 18.5082C0.67599 18.6713 0.745921 18.8345 0.885781 18.9044L3.98601 20.0932C4.14918 20.1399 4.31235 20.0699 4.35897 19.9068C4.40559 19.7669 5.5711 16.5967 5.68765 16.2471H13.5431C13.683 16.5967 14.8252 19.7669 14.8718 19.9068C14.9184 20.0699 15.1049 20.1399 15.2448 20.0932C15.4079 20.0466 18.1585 18.9744 18.345 18.9044C18.5315 18.8345 18.6014 18.648 18.5548 18.5082ZM6.9697 12.7273L9.62704 4.75525H9.65035L12.3077 12.7273H6.9697Z" fill="white"/>
</g>
<defs>
<clipPath id="clip0_0_1">
<rect width="19" height="21" fill="white"/>
</clipPath>
<clipPath id="clip1_0_1">
<rect width="19" height="7" fill="white" transform="translate(0 23)"/>
</clipPath>
</defs>
</svg>
