<svg width="25" height="25" viewBox="0 0 25 25" fill="none" xmlns="http://www.w3.org/2000/svg">
<path d="M24.9629 12.3088C24.925 12.2173 24.8609 12.1391 24.7785 12.0841C24.6962 12.0292 24.5994 11.9999 24.5004 12H19.0004V1.5C19.0004 1.10218 18.8424 0.720644 18.5611 0.43934C18.2798 0.158035 17.8982 0 17.5004 0H7.50039C7.10257 0 6.72104 0.158035 6.43973 0.43934C6.15843 0.720644 6.00039 1.10218 6.00039 1.5V12H0.500394C0.401446 11.9999 0.3047 12.0292 0.222403 12.0841C0.140106 12.1391 0.0759587 12.2172 0.0380825 12.3086C0.000206247 12.4 -0.00969606 12.5006 0.00962914 12.5977C0.0289543 12.6947 0.0766381 12.7838 0.146644 12.8538L12.1466 24.8538C12.1931 24.9002 12.2482 24.9371 12.3089 24.9623C12.3696 24.9874 12.4347 25.0004 12.5004 25.0004C12.5661 25.0004 12.6312 24.9874 12.6919 24.9623C12.7526 24.9371 12.8077 24.9002 12.8541 24.8538L24.8541 12.8538C24.9242 12.7839 24.9719 12.6948 24.9912 12.5978C25.0106 12.5007 25.0007 12.4002 24.9629 12.3088ZM12.5004 23.7925L1.70789 13H6.50039C6.633 13 6.76018 12.9473 6.85395 12.8536C6.94772 12.7598 7.00039 12.6326 7.00039 12.5V1.5C7.00039 1.36739 7.05307 1.24021 7.14684 1.14645C7.24061 1.05268 7.36779 1 7.50039 1H17.5004C17.633 1 17.7602 1.05268 17.8539 1.14645C17.9477 1.24021 18.0004 1.36739 18.0004 1.5V12.5C18.0004 12.6326 18.0531 12.7598 18.1468 12.8536C18.2406 12.9473 18.3678 13 18.5004 13H23.2929L12.5004 23.7925Z" fill="#E10148"/>
</svg>
