<svg width="63" height="63" viewBox="0 0 63 63" fill="none" xmlns="http://www.w3.org/2000/svg">
<path id="Vector" d="M39.4225 3.60867C39.5097 3.27274 39.7265 2.98506 40.0254 2.80858C40.3243 2.63209 40.6809 2.58116 41.0172 2.66694C45.6641 3.87722 49.9039 6.30548 53.299 9.70115C56.6942 13.0968 59.1218 17.3369 60.3314 21.9839C60.4172 22.3197 60.3668 22.6759 60.1909 22.9747C60.0151 23.2735 59.7282 23.4906 59.3929 23.5786C59.2862 23.609 59.1757 23.6245 59.0647 23.6245C58.7745 23.6236 58.4927 23.5264 58.2636 23.3483C58.0344 23.1702 57.8707 22.9212 57.7981 22.6401C56.7025 18.4469 54.5095 14.6211 51.4448 11.5565C48.3801 8.49189 44.5543 6.29899 40.3609 5.20337C40.0256 5.11538 39.7387 4.8983 39.5629 4.59952C39.387 4.30074 39.3366 3.94453 39.4225 3.60867ZM37.7358 15.7035C42.6579 17.0258 45.9753 20.3432 47.2977 25.2652C47.3703 25.5462 47.534 25.7952 47.7632 25.9734C47.9923 26.1515 48.2741 26.2486 48.5644 26.2495C48.6753 26.2495 48.7858 26.234 48.8925 26.2036C49.2282 26.1136 49.5145 25.8941 49.6885 25.5933C49.8626 25.2925 49.9103 24.935 49.8211 24.5991C48.2461 18.6927 44.292 14.7552 38.3921 13.1671C38.0642 13.1036 37.7244 13.1676 37.442 13.346C37.1597 13.5243 36.9559 13.8036 36.8722 14.1269C36.7886 14.4503 36.8313 14.7933 36.9918 15.0863C37.1522 15.3792 37.4183 15.5999 37.7358 15.7035ZM62.9827 48.0963C62.438 52.2273 60.4076 56.0185 57.2709 58.7614C54.1343 61.5042 50.1061 63.011 45.9393 62.9999C20.6071 62.9999 3.68735e-05 42.3935 3.68735e-05 17.0619C-0.00859704 12.8969 1.49926 8.87122 4.24196 5.7367C6.98467 2.60218 10.7747 0.573216 14.904 0.0287854C15.75 -0.0740603 16.6065 0.100314 17.3449 0.525722C18.0833 0.951131 18.6638 1.60461 18.9992 2.38803L25.9229 17.856C26.1817 18.4558 26.2872 19.1105 26.2299 19.7612C26.1726 20.412 25.9544 21.0382 25.5947 21.5836C25.5652 21.6262 25.5357 21.6689 25.5029 21.7082L18.5464 29.9804C18.4372 30.1616 18.3747 30.367 18.3644 30.5783C18.354 30.7896 18.3963 31.0002 18.4873 31.1912C21.0599 36.4576 26.5759 41.9308 31.9048 44.5033C32.0973 44.5926 32.3087 44.633 32.5205 44.621C32.7323 44.609 32.9378 44.5449 33.1189 44.4344L41.2797 37.5044L41.4044 37.4092C41.9505 37.0485 42.5779 36.8296 43.2299 36.7723C43.8819 36.715 44.5379 36.8211 45.1386 37.0811L60.6332 44.0243C61.4089 44.3617 62.0552 44.9399 62.4766 45.6733C62.898 46.4067 63.072 47.2563 62.9729 48.0963H62.9827ZM59.5865 46.4163L44.0853 39.4731C43.897 39.3941 43.6925 39.3609 43.4889 39.3763C43.2852 39.3917 43.0881 39.4552 42.9138 39.5617L34.7826 46.4918L34.6612 46.5837C34.0958 46.9611 33.4424 47.1858 32.7644 47.2359C32.0864 47.2859 31.4071 47.1595 30.7924 46.8691C24.886 44.0177 19.009 38.1803 16.1575 32.3429C15.8642 31.733 15.7331 31.0578 15.7768 30.3824C15.8205 29.7071 16.0375 29.0544 16.4069 28.4874C16.4364 28.4414 16.4692 28.4021 16.5021 28.3594L23.4553 20.0906C23.5595 19.9133 23.6206 19.7141 23.6338 19.5089C23.6469 19.3037 23.6116 19.0984 23.5308 18.9093L16.5939 3.44132C16.4962 3.20153 16.3297 2.99601 16.1154 2.85063C15.9011 2.70524 15.6486 2.62649 15.3897 2.62428C15.3372 2.62102 15.2846 2.62102 15.2322 2.62428C11.7351 3.08764 8.52643 4.8088 6.20618 7.46597C3.88593 10.1231 2.61291 13.5344 2.62514 17.0619C2.62514 40.9431 22.0574 60.3749 45.9393 60.3749C49.4669 60.3871 52.8782 59.1141 55.5355 56.794C58.1927 54.4738 59.9139 51.2652 60.3773 47.7682C60.4075 47.4867 60.3459 47.2029 60.2016 46.9592C60.0573 46.7156 59.8381 46.5251 59.5766 46.4163H59.5865Z" fill="black"/>
</svg>
