<svg width="167" height="167" viewBox="0 0 167 167" fill="none" xmlns="http://www.w3.org/2000/svg">
<path d="M104.501 9.56583C104.732 8.67536 105.307 7.91279 106.099 7.44496C106.891 6.97713 107.837 6.84213 108.728 7.06951C121.046 10.2777 132.285 16.7145 141.285 25.7157C150.285 34.717 156.72 45.9565 159.926 58.2747C160.154 59.165 160.02 60.1092 159.554 60.9012C159.088 61.6932 158.327 62.2687 157.438 62.5019C157.155 62.5826 156.863 62.6236 156.568 62.6237C155.799 62.6212 155.052 62.3637 154.445 61.8916C153.837 61.4195 153.403 60.7593 153.211 60.0143C150.307 48.8988 144.494 38.7576 136.37 30.6339C128.246 22.5103 118.104 16.6973 106.988 13.7931C106.1 13.5598 105.339 12.9844 104.873 12.1924C104.407 11.4004 104.273 10.4561 104.501 9.56583ZM100.03 41.6267C113.077 45.132 121.871 53.9257 125.377 66.9727C125.569 67.7177 126.003 68.3779 126.61 68.85C127.218 69.3222 127.965 69.5796 128.734 69.5821C129.028 69.582 129.321 69.541 129.604 69.4603C130.494 69.2217 131.253 68.6399 131.714 67.8426C132.176 67.0452 132.302 66.0974 132.066 65.207C127.89 49.5506 117.409 39.113 101.77 34.9031C100.9 34.7351 99.9997 34.9047 99.2511 35.3774C98.5026 35.8502 97.9624 36.5905 97.7406 37.4476C97.5189 38.3047 97.6322 39.2141 98.0575 39.9905C98.4829 40.767 99.1882 41.3521 100.03 41.6267ZM166.954 127.493C165.51 138.444 160.128 148.494 151.813 155.764C143.499 163.035 132.821 167.029 121.775 167C54.6251 167 9.7744e-05 112.376 9.7744e-05 45.2277C-0.022789 34.1871 3.97422 23.5158 11.2446 15.2068C18.5149 6.89783 28.5614 1.51948 39.5075 0.0763041C41.75 -0.196319 44.0204 0.265911 45.9778 1.39358C47.9352 2.52125 49.4739 4.25349 50.3629 6.33017L68.7162 47.3326C69.4022 48.9225 69.6819 50.6581 69.5301 52.383C69.3782 54.1079 68.7996 55.7679 67.8464 57.2135C67.7681 57.3266 67.6898 57.4397 67.6028 57.5441L49.1626 79.4718C48.8732 79.9521 48.7074 80.4967 48.6801 81.0568C48.6528 81.6169 48.7648 82.1751 49.006 82.6813C55.8254 96.6416 70.4472 111.15 84.5731 117.969C85.0832 118.206 85.6438 118.313 86.2052 118.281C86.7666 118.249 87.3114 118.079 87.7915 117.786L109.424 99.4163L109.755 99.164C111.202 98.2078 112.865 97.6276 114.594 97.4757C116.322 97.3238 118.061 97.6052 119.653 98.2943L160.726 116.699C162.782 117.594 164.496 119.126 165.613 121.071C166.73 123.015 167.191 125.267 166.928 127.493H166.954ZM157.951 123.04L116.861 104.635C116.362 104.426 115.82 104.338 115.28 104.378C114.74 104.419 114.218 104.588 113.756 104.87L92.2015 123.24L91.8796 123.484C90.381 124.484 88.6488 125.08 86.8517 125.213C85.0545 125.345 83.2537 125.01 81.6244 124.24C65.9676 116.682 50.389 101.208 42.8302 85.7343C42.0528 84.1176 41.7053 82.3278 41.8211 80.5376C41.9369 78.7474 42.5121 77.0173 43.4913 75.5142C43.5696 75.3924 43.6566 75.288 43.7436 75.1749L62.1751 53.256C62.4514 52.7862 62.6135 52.258 62.6482 51.7141C62.683 51.1702 62.5894 50.6258 62.3752 50.1247L43.9871 9.12224C43.728 8.4866 43.2867 7.9418 42.7186 7.55642C42.1506 7.17104 41.4813 6.96228 40.7949 6.95643C40.6558 6.94779 40.5164 6.94779 40.3773 6.95643C31.1072 8.1847 22.6018 12.7471 16.4513 19.7907C10.3008 26.8343 6.9263 35.8769 6.95869 45.2277C6.95869 108.532 58.4697 160.041 121.775 160.041C131.127 160.074 140.169 156.699 147.213 150.549C154.257 144.399 158.819 135.894 160.048 126.624C160.128 125.877 159.965 125.125 159.582 124.479C159.2 123.833 158.618 123.329 157.925 123.04H157.951Z" fill="#E10148"/>
</svg>
