<svg class="heart_item" xmlns="http://www.w3.org/2000/svg" width="27" height="23" viewBox="0 0 27 23" fill="none">
  <path d="M13.5 22L24.2397 11.1854C25.3668 10.0665 26 8.54888 26 6.96647C26 5.38407 25.3668 3.86647 24.2397 2.74754C23.1126 1.62861 21.5839 1 19.99 1C18.396 1 16.8673 1.62861 15.7402 2.74754L13.5 4.81883L11.2598 2.74754C10.1327 1.62861 8.60398 1 7.01003 1C5.41607 1 3.88739 1.62861 2.7603 2.74754C1.6332 3.86647 1 5.38407 1 6.96647C1 8.54888 1.6332 10.0665 2.7603 11.1854L13.5 22Z" stroke="black" stroke-linecap="round" stroke-linejoin="round"/>
</svg>