<svg xmlns="http://www.w3.org/2000/svg" width="13" height="10" viewBox="0 0 19 14" fill="none">
<path d="M6.85073 7.74744C6.9092 7.805 6.97864 7.85065 7.05507 7.88181C7.13151 7.91296 7.21344 7.92899 7.29618 7.92899C7.37892 7.92899 7.46085 7.91296 7.53728 7.88181C7.61371 7.85065 7.68315 7.805 7.74162 7.74744L15.0356 0.681545C15.0941 0.623992 15.1635 0.578336 15.24 0.547185C15.3164 0.516034 15.3983 0.5 15.4811 0.5C15.5638 0.5 15.6457 0.516034 15.7222 0.547185C15.7986 0.578336 15.868 0.623992 15.9265 0.681545L17.8153 2.5076C17.8739 2.56509 17.9203 2.63336 17.952 2.7085C17.9837 2.78365 18 2.8642 18 2.94554C18 3.02689 17.9837 3.10744 17.952 3.18258C17.9203 3.25773 17.8739 3.326 17.8153 3.38349L7.71014 13.3185C7.65167 13.376 7.58223 13.4217 7.5058 13.4528C7.42936 13.484 7.34744 13.5 7.2647 13.5C7.18196 13.5 7.10003 13.484 7.02359 13.4528C6.94716 13.4217 6.87772 13.376 6.81925 13.3185L1.18426 7.74744C1.06628 7.63137 1 7.47399 1 7.30989C1 7.14579 1.06628 6.98841 1.18426 6.87233L3.07308 5.01533C3.13156 4.95777 3.201 4.91212 3.27743 4.88097C3.35386 4.84982 3.43579 4.83378 3.51853 4.83378C3.60127 4.83378 3.6832 4.84982 3.75963 4.88097C3.83607 4.91212 3.90551 4.95777 3.96398 5.01533L6.85073 7.74744Z" stroke="#fc5087" stroke-linecap="round" stroke-linejoin="round"/>
</svg>