<svg width="5" height="5" viewBox="0 0 50 38" fill="none" xmlns="http://www.w3.org/2000/svg">
<path d="M49.7069 25.707L37.7071 37.7067C37.6142 37.7997 37.5039 37.8735 37.3825 37.9238C37.2611 37.9741 37.131 38 36.9996 38C36.8682 38 36.738 37.9741 36.6166 37.9238C36.4953 37.8735 36.385 37.7997 36.2921 37.7067L24.2922 25.707C24.1993 25.6141 24.1256 25.5038 24.0753 25.3824C24.0251 25.261 23.9992 25.1309 23.9992 24.9995C23.9992 24.8681 24.0251 24.738 24.0753 24.6166C24.1256 24.4952 24.1993 24.3849 24.2922 24.292C24.3851 24.1991 24.4954 24.1254 24.6168 24.0751C24.7382 24.0248 24.8683 23.9989 24.9997 23.9989C25.1311 23.9989 25.2612 24.0248 25.3826 24.0751C25.504 24.1254 25.6143 24.1991 25.7072 24.292L35.9996 34.5843V1.99996H0.999989C0.734775 1.99996 0.480424 1.8946 0.29289 1.70707C0.105356 1.51954 0 1.26519 0 0.999979C0 0.734768 0.105356 0.48042 0.29289 0.292887C0.480424 0.105355 0.734775 0 0.999989 0H36.9996C37.2648 0 37.5192 0.105355 37.7067 0.292887C37.8942 0.48042 37.9996 0.734768 37.9996 0.999979V34.5843L48.292 24.292C48.3849 24.1991 48.4952 24.1254 48.6166 24.0751C48.738 24.0248 48.8681 23.9989 48.9995 23.9989C49.1308 23.9989 49.261 24.0248 49.3823 24.0751C49.5037 24.1254 49.614 24.1991 49.7069 24.292C49.7999 24.3849 49.8736 24.4952 49.9238 24.6166C49.9741 24.738 50 24.8681 50 24.9995C50 25.1309 49.9741 25.261 49.9238 25.3824C49.8736 25.5038 49.7999 25.6141 49.7069 25.707Z" fill="#E10148"/>
</svg>
