<svg width="46" height="46" viewBox="0 0 46 46" fill="none" xmlns="http://www.w3.org/2000/svg">
<path d="M28.7846 2.6349C28.8484 2.38962 29.0067 2.17957 29.2249 2.05071C29.4431 1.92184 29.7035 1.88466 29.9491 1.94729C33.342 2.83099 36.4377 4.604 38.9168 7.08338C41.3958 9.56275 43.1683 12.6587 44.0515 16.0517C44.1142 16.2969 44.0773 16.557 43.9489 16.7752C43.8206 16.9933 43.6111 17.1519 43.3662 17.2161C43.2883 17.2383 43.2077 17.2496 43.1266 17.2496C42.9147 17.249 42.709 17.178 42.5416 17.048C42.3743 16.9179 42.2548 16.7361 42.2018 16.5309C41.4018 13.4691 39.8006 10.6758 37.5629 8.43809C35.3252 6.20043 32.5317 4.59926 29.4699 3.79929C29.225 3.73504 29.0156 3.57653 28.8872 3.35838C28.7588 3.14022 28.7219 2.88014 28.7846 2.6349ZM27.5531 11.466C31.147 12.4316 33.5693 14.8538 34.5349 18.4476C34.5878 18.6528 34.7074 18.8346 34.8747 18.9647C35.042 19.0947 35.2478 19.1656 35.4597 19.1663C35.5407 19.1663 35.6214 19.155 35.6993 19.1328C35.9444 19.0671 36.1534 18.9068 36.2805 18.6872C36.4076 18.4676 36.4424 18.2065 36.3773 17.9612C35.2273 13.6487 32.3402 10.7736 28.0323 9.61404C27.7929 9.56774 27.5448 9.61446 27.3386 9.74468C27.1324 9.8749 26.9837 10.0788 26.9226 10.3149C26.8615 10.551 26.8927 10.8015 27.0099 11.0154C27.127 11.2292 27.3213 11.3904 27.5531 11.466ZM45.9874 35.118C45.5897 38.1342 44.1071 40.9024 41.8169 42.9051C39.5266 44.9079 36.5854 46.008 33.5429 46C15.0464 46 2.69235e-05 30.954 2.69235e-05 12.4579C-0.0062772 9.41682 1.0947 6.4774 3.09731 4.1887C5.09992 1.9 7.86721 0.418539 10.8823 0.0210179C11.5 -0.0540758 12.1254 0.073245 12.6645 0.383861C13.2037 0.694476 13.6276 1.17162 13.8724 1.74364L18.9278 13.0377C19.1168 13.4757 19.1938 13.9537 19.152 14.4288C19.1102 14.904 18.9508 15.3612 18.6882 15.7594C18.6667 15.7906 18.6451 15.8217 18.6211 15.8505L13.5418 21.8904C13.4621 22.0227 13.4164 22.1727 13.4089 22.327C13.4014 22.4813 13.4322 22.635 13.4987 22.7745C15.3771 26.6198 19.4046 30.6161 23.2956 32.4945C23.4361 32.5597 23.5905 32.5892 23.7451 32.5804C23.8998 32.5716 24.0498 32.5248 24.1821 32.4442L30.1407 27.3841L30.2318 27.3146C30.6305 27.0513 31.0887 26.8914 31.5647 26.8496C32.0408 26.8078 32.5198 26.8853 32.9583 27.0751L44.2719 32.1447C44.8382 32.3911 45.3102 32.8133 45.6178 33.3488C45.9255 33.8843 46.0526 34.5046 45.9802 35.118H45.9874ZM43.5076 33.8913L32.1893 28.8216C32.0517 28.7639 31.9025 28.7397 31.7538 28.7509C31.6051 28.7622 31.4612 28.8086 31.3339 28.8863L25.3968 33.9464L25.3082 34.0135C24.8954 34.2891 24.4182 34.4531 23.9232 34.4897C23.4282 34.5262 22.9322 34.434 22.4834 34.2219C18.1707 32.1399 13.8796 27.8777 11.7976 23.6154C11.5834 23.1701 11.4877 22.6771 11.5196 22.184C11.5515 21.6909 11.7099 21.2143 11.9796 20.8003C12.0012 20.7668 12.0252 20.738 12.0491 20.7069L17.1261 14.6693C17.2022 14.5399 17.2468 14.3944 17.2564 14.2446C17.266 14.0948 17.2402 13.9448 17.1812 13.8068L12.1162 2.51271C12.0448 2.33763 11.9233 2.18756 11.7668 2.08141C11.6103 1.97526 11.426 1.91775 11.2369 1.91614C11.1986 1.91376 11.1602 1.91376 11.1219 1.91614C8.56846 2.25447 6.22565 3.51119 4.5315 5.45134C2.83735 7.39149 1.90784 9.88225 1.91677 12.4579C1.91677 29.895 16.1054 44.0833 33.5429 44.0833C36.1187 44.0922 38.6095 43.1627 40.5497 41.4686C42.4899 39.7745 43.7467 37.4318 44.085 34.8784C44.1071 34.6728 44.0621 34.4656 43.9567 34.2877C43.8514 34.1098 43.6913 33.9707 43.5004 33.8913H43.5076Z" fill="white"/>
</svg>
