<svg width="41" height="46" viewBox="0 0 41 46" fill="none" xmlns="http://www.w3.org/2000/svg">
<path d="M19.3267 0L21.7291 2.40235L20.3527 7.2014C20.0141 8.38263 19.2205 9.64971 18.1455 10.7247L7.14156 21.7287L15.0585 29.6456L25.6704 19.0336L28.5749 21.9381L27.6027 25.3283C27.264 26.5095 26.47 27.777 25.3955 28.8516L15.058 39.189L2.36939 26.5004L2.36982 26.5L0 24.1301L1.35121 19.3129C1.68468 18.1234 2.48257 16.8433 3.56709 15.7592L19.3267 0Z" fill="#E10148"/>
<path d="M25.671 6.34473L38.3596 19.0334L38.3592 19.0338L40.729 21.4036L39.3778 26.2209C39.0443 27.4104 38.2464 28.6905 37.1619 29.7745L21.4027 45.5338L19.0004 43.1314L20.3767 38.3324C20.7154 37.1511 21.5089 35.884 22.5839 34.8091L33.5879 23.8051L25.671 15.8882L15.059 26.5002L12.1545 23.5957L13.1268 20.2055C13.4654 19.0243 14.2594 17.7567 15.334 16.6822L25.671 6.34473Z" fill="#E10148"/>
</svg>
