<svg class="mail_item" width="22" height="16" viewBox="0 0 22 16" fill="none" xmlns="http://www.w3.org/2000/svg">
<path d="M4.45465 2.30883L10.2697 5.90131C10.4382 6.00535 10.6308 6.0574 10.8245 6.0574C11.0182 6.0574 11.2107 6.00535 11.3792 5.90131L17.1942 2.30883H4.45465ZM9.17132 7.64649L2.49303 3.52072V11.5735C2.49303 11.8579 2.60956 12.1153 2.79796 12.3015C2.98636 12.4877 3.24675 12.6029 3.53444 12.6029H18.1144C18.4021 12.6029 18.6625 12.4877 18.8509 12.3015C19.0393 12.1153 19.1559 11.8579 19.1559 11.5735V3.52072L12.4776 7.64649C11.9707 7.95963 11.397 8.11623 10.8245 8.11623C10.2519 8.11623 9.67823 7.95963 9.17132 7.64649ZM18.1144 14.6618H3.53444C2.67181 14.6618 1.89076 14.3161 1.32532 13.7572C0.759893 13.1983 0.410156 12.4262 0.410156 11.5735V3.33824C0.410156 2.48556 0.759893 1.71351 1.32532 1.15461C1.89076 0.595702 2.67183 0.25 3.53444 0.25H18.1144C18.9771 0.25 19.7581 0.595702 20.3236 1.1546C20.889 1.71352 21.2387 2.48556 21.2387 3.33824V11.5735C21.2387 12.4262 20.889 13.1983 20.3236 13.7572C19.7581 14.3161 18.9771 14.6618 18.1144 14.6618Z" fill="#E10148"/>
</svg>
