<svg xmlns="http://www.w3.org/2000/svg" width="50" height="30" viewBox="0 0 50 30" fill="none">
  <path d="M31.4422 3.20703H18.2661V26.793H31.4422V3.20703Z" fill="white"/>
  <path opacity="0.5" d="M31.4422 3.20703H18.2661V26.793H31.4422V3.20703Z" fill="#E10148"/>
  <path d="M19.1029 15C19.1008 12.7285 19.6175 10.4863 20.614 8.44313C21.6104 6.39997 23.0604 4.60942 24.8543 3.20701C22.6329 1.46769 19.965 0.386033 17.1556 0.0856691C14.3462 -0.214695 11.5087 0.278343 8.96733 1.50845C6.42596 2.73856 4.28329 4.6561 2.78424 7.04188C1.28518 9.42767 0.490234 12.1854 0.490234 15C0.490234 17.8146 1.28518 20.5723 2.78424 22.9581C4.28329 25.3439 6.42596 27.2614 8.96733 28.4915C11.5087 29.7217 14.3462 30.2147 17.1556 29.9143C19.965 29.614 22.6329 28.5323 24.8543 26.793C23.0605 25.3906 21.6104 23.6 20.614 21.5569C19.6175 19.5137 19.1008 17.2715 19.1029 15Z" fill="#E10148"/>
  <path d="M49.2176 15C49.2177 17.8145 48.4228 20.5723 46.9238 22.9581C45.4248 25.3439 43.2822 27.2614 40.7409 28.4915C38.1996 29.7216 35.3621 30.2147 32.5528 29.9143C29.7434 29.614 27.0756 28.5323 24.8542 26.793C26.6465 25.3892 28.0954 23.5983 29.0917 21.5555C30.088 19.5126 30.6056 17.2711 30.6056 15C30.6056 12.7289 30.088 10.4874 29.0917 8.44452C28.0954 6.40168 26.6465 4.61083 24.8542 3.207C27.0756 1.46768 29.7434 0.386025 32.5528 0.0856652C35.3621 -0.214695 38.1996 0.278364 40.7409 1.50848C43.2822 2.7386 45.4248 4.65614 46.9238 7.04193C48.4228 9.42772 49.2177 12.1855 49.2176 15Z" fill="white"/>
  <path d="M47.7809 24.2951V23.8122H47.9763V23.7138H47.4785V23.8122H47.6741V24.2951H47.7809ZM48.7473 24.2951V23.7129H48.5947L48.4192 24.1133L48.2437 23.7129H48.091V24.2951H48.1987V23.8559L48.3633 24.2346H48.4751L48.6396 23.855V24.2951H48.7473Z" fill="white"/>
</svg>