<svg width="19" height="19" viewBox="0 0 19 19" fill="none" xmlns="http://www.w3.org/2000/svg">
<g clip-path="url(#clip0_1145_2262)">
<path d="M9.43101 7.26497C10.4452 7.26168 11.2529 6.44738 11.2492 5.43091C11.2452 4.41444 10.4361 3.60478 9.42154 3.604C8.39849 3.60304 7.58149 4.42719 7.58941 5.45294C7.59695 6.46555 8.41376 7.26922 9.43101 7.26497Z" fill="#E10148"/>
<path d="M17.539 0H1.30333C0.769673 0 0.336914 0.432566 0.336914 0.966412V17.2021C0.336914 17.736 0.769673 18.1685 1.30333 18.1685H17.539C18.0729 18.1685 18.5055 17.736 18.5055 17.2021V0.966412C18.5055 0.432566 18.0729 0 17.539 0ZM9.43665 1.69431C11.5046 1.69953 13.1649 3.39152 13.1546 5.48303C13.1436 7.52603 11.4563 9.18207 9.39161 9.17511C7.34746 9.16815 5.67131 7.47365 5.68291 5.42621C5.69509 3.35635 7.37239 1.68813 9.43665 1.69431ZM13.6257 10.6444C13.1683 11.1143 12.6179 11.4537 12.0063 11.6913C11.4282 11.9147 10.7948 12.028 10.1678 12.103C10.2625 12.2062 10.3072 12.2562 10.3659 12.3159C11.2172 13.1712 12.0719 14.023 12.9202 14.8808C13.2089 15.1729 13.27 15.5353 13.1106 15.8752C12.9364 16.2473 12.5469 16.4914 12.1646 16.4651C11.9226 16.4481 11.734 16.3277 11.5666 16.1594C10.9241 15.5128 10.2695 14.8785 9.64056 14.2206C9.45752 14.0288 9.36938 14.0646 9.20741 14.2314C8.56127 14.8967 7.90508 15.5517 7.24463 16.2029C6.94794 16.4955 6.5952 16.5479 6.25058 16.3811C5.88489 16.2038 5.65256 15.8306 5.67054 15.455C5.68291 15.2015 5.80777 15.0078 5.98192 14.8338C6.82386 13.9929 7.66386 13.1498 8.50425 12.3073C8.56011 12.2516 8.61191 12.1919 8.69289 12.1053C7.54692 11.9856 6.51364 11.7038 5.62937 11.0119C5.51978 10.9259 5.40632 10.8428 5.30582 10.7465C4.91886 10.3746 4.88002 9.94921 5.18637 9.51026C5.44807 9.13491 5.88837 9.03402 6.34548 9.24953C6.4342 9.29108 6.51847 9.34346 6.59926 9.39932C8.24757 10.532 10.5123 10.5635 12.167 9.45073C12.3307 9.32568 12.506 9.22208 12.7093 9.17067C13.1046 9.06919 13.4722 9.21396 13.6844 9.55955C13.9274 9.95327 13.9241 10.3383 13.6257 10.6444Z" fill="#E10148"/>
</g>
<defs>
<clipPath id="clip0_1145_2262">
<rect x="0.336914" width="18.1685" height="18.1685" rx="9.08427" fill="white"/>
</clipPath>
</defs>
</svg>
