<svg width="19" height="19" viewBox="0 0 19 19" fill="none" xmlns="http://www.w3.org/2000/svg">
<path d="M17.936 8.68193C17.9376 8.68193 17.9388 8.68193 17.9404 8.68193C18.0511 8.68193 18.1566 8.63553 18.2315 8.55422C18.3077 8.47172 18.3453 8.36106 18.3354 8.24921C17.9372 3.86922 14.4697 0.400288 10.0896 0.00127818C9.97851 -0.00744769 9.86667 0.0286457 9.78417 0.105195C9.70168 0.181348 9.65567 0.288835 9.65686 0.401082C9.72587 6.22203 10.4937 8.60062 17.936 8.68193ZM17.936 9.4863C10.4937 9.56761 9.72627 11.9462 9.65726 17.7671C9.65607 17.8794 9.70208 17.9869 9.78457 18.063C9.85834 18.1309 9.95472 18.1685 10.0539 18.1685C10.0658 18.1685 10.0781 18.1681 10.09 18.167C14.4701 17.7679 17.9376 14.2994 18.3354 9.91902C18.3453 9.80717 18.3081 9.69651 18.2315 9.61401C18.155 9.53152 18.0483 9.49066 17.936 9.4863ZM8.38931 0.00326138C4.02306 0.413774 0.566624 3.88191 0.170413 8.25C0.160498 8.36185 0.197779 8.47251 0.274324 8.55501C0.349283 8.63632 0.455177 8.68233 0.565434 8.68233C0.567021 8.68233 0.568607 8.68233 0.570194 8.68233C7.98794 8.59705 8.75379 6.21965 8.82359 0.402668C8.82478 0.290422 8.77838 0.182538 8.69588 0.106385C8.6126 0.0302323 8.50115 -0.00705101 8.38931 0.00326138ZM0.569797 9.4859C0.446452 9.47202 0.34968 9.53072 0.273928 9.61322C0.197779 9.69572 0.160102 9.80638 0.170017 9.91823C0.566227 14.2863 4.02306 17.7545 8.38931 18.165C8.4016 18.1662 8.41429 18.1666 8.42659 18.1666C8.52574 18.1666 8.62172 18.1293 8.69549 18.0614C8.77798 17.9853 8.82438 17.8774 8.82319 17.7652C8.75339 11.9486 7.98794 9.57118 0.569797 9.4859Z" fill="#E10148"/>
</svg>
