<svg width="19" height="19" viewBox="0 0 19 19" fill="none" xmlns="http://www.w3.org/2000/svg">
<path d="M17.2021 0H0.966412C0.432566 0 0 0.432759 0 0.966412V17.2021C0 17.7358 0.432566 18.1685 0.966412 18.1685H17.2021C17.736 18.1685 18.1685 17.7358 18.1685 17.2021V0.966412C18.1685 0.432759 17.736 0 17.2021 0ZM14.4709 10.2329C14.966 10.7162 15.4896 11.1711 15.9344 11.7052C16.1311 11.941 16.3167 12.1845 16.458 12.4588C16.6592 12.85 16.4775 13.2797 16.1269 13.3027L13.9513 13.3021C13.3896 13.3483 12.9424 13.1221 12.5651 12.7381C12.2645 12.4317 11.9851 12.1047 11.6953 11.7883C11.5772 11.6582 11.452 11.5359 11.3039 11.4392C11.0074 11.2467 10.7498 11.3055 10.5795 11.6149C10.4063 11.93 10.3663 12.2794 10.3505 12.6306C10.3263 13.1438 10.1717 13.2777 9.65697 13.3015C8.55719 13.3533 7.51327 13.1863 6.54357 12.6322C5.68753 12.1432 5.02553 11.4524 4.44878 10.6711C3.32465 9.14747 2.46377 7.475 1.69064 5.75459C1.51649 5.36706 1.64387 5.15967 2.07083 5.15175C2.78133 5.13764 3.49165 5.13957 4.20118 5.15097C4.49033 5.15542 4.68149 5.32087 4.79224 5.5934C5.17591 6.53758 5.64674 7.43596 6.23625 8.269C6.39339 8.4907 6.55382 8.71201 6.78189 8.86876C7.03393 9.04194 7.22605 8.98492 7.34492 8.7037C7.42088 8.52433 7.45374 8.33375 7.46997 8.14202C7.52641 7.48563 7.53318 6.82924 7.43576 6.17537C7.37488 5.76638 7.14449 5.50217 6.73666 5.42485C6.52908 5.38543 6.55942 5.3085 6.66032 5.19002C6.83543 4.98475 7.00049 4.85796 7.3283 4.85796L8.87437 4.85772C9.4814 4.85762 10.2324 4.89598 10.3137 5.49753L10.3161 8.22919C10.312 8.38033 10.3916 8.82798 10.663 8.92694C10.8801 8.99865 11.0241 8.8245 11.1539 8.68649C11.7431 8.06123 12.1629 7.32269 12.5392 6.55865C12.7048 6.22176 12.8484 5.87269 12.9876 5.52343C13.0906 5.26501 13.2518 5.13783 13.5433 5.14247L15.9102 5.14498C15.9798 5.14498 16.0511 5.14576 16.1201 5.15716C16.5187 5.22577 16.6279 5.39741 16.5048 5.78668C16.3107 6.39803 15.9328 6.90752 15.5633 7.41818C15.1684 7.9642 14.7469 8.49225 14.3549 9.04097C13.9958 9.54428 14.0248 9.7971 14.4709 10.2329Z" fill="#E10148"/>
</svg>
