<svg width="31" height="78" viewBox="0 0 31 78" fill="none" xmlns="http://www.w3.org/2000/svg">
<path d="M0.500001 56.5726L0.500003 0.5L15.4024 0.500001L26.3735 11.4381C27.6819 12.7426 28.7197 14.2911 29.4277 15.9953C30.1357 17.6995 30.5 19.5259 30.5 21.3704L30.5 77.5L15.809 77.5L4.69518 66.5722C3.36631 65.2654 2.3112 63.7085 1.59106 61.9919C0.870912 60.2753 0.50006 58.4332 0.500001 56.5726Z" stroke="black"/>
<path d="M9.34186 47.4473C9.23348 47.5318 9.1475 47.632 9.08885 47.7424C9.03019 47.8527 9 47.971 9 48.0904C9 48.2099 9.03019 48.3282 9.08885 48.4385C9.1475 48.5489 9.23348 48.6491 9.34186 48.7336C9.45024 48.8181 9.57891 48.8851 9.72052 48.9308C9.86213 48.9765 10.0139 49 10.1672 49C10.3205 49 10.4722 48.9765 10.6138 48.9308C10.7555 48.8851 10.8841 48.8181 10.9925 48.7336L22.6579 39.6431C22.7663 39.5587 22.8524 39.4585 22.9111 39.3481C22.9698 39.2378 23 39.1195 23 39C23 38.8805 22.9698 38.7622 22.9111 38.6519C22.8524 38.5415 22.7663 38.4413 22.6579 38.3568L10.9925 29.2664C10.7736 29.0958 10.4767 29 10.1672 29C9.85763 29 9.56075 29.0958 9.34186 29.2664C9.12297 29.437 9 29.6683 9 29.9096C9 30.1508 9.12297 30.3821 9.34186 30.5527L20.1834 39L9.34186 47.4473Z" fill="black"/>
</svg>
