<svg width="31" height="78" viewBox="0 0 31 78" fill="none" xmlns="http://www.w3.org/2000/svg">
<g id="Component 32">
<path id="Vector" d="M30.5 56.5726L30.5 0.5L15.5976 0.500001L4.62647 11.4381C3.3181 12.7426 2.28032 14.2911 1.57233 15.9953C0.864339 17.6995 0.499975 19.5259 0.500001 21.3704L0.500004 77.5L15.191 77.5L26.3048 66.5722C27.6337 65.2654 28.6888 63.7085 29.4089 61.9919C30.1291 60.2753 30.4999 58.4332 30.5 56.5726Z" stroke="black"/>
<path id="Vector_2" d="M21.6581 47.4473C21.7665 47.5318 21.8525 47.632 21.9112 47.7424C21.9698 47.8527 22 47.971 22 48.0904C22 48.2099 21.9698 48.3282 21.9112 48.4385C21.8525 48.5489 21.7665 48.6491 21.6581 48.7336C21.5498 48.8181 21.4211 48.8851 21.2795 48.9308C21.1379 48.9765 20.9861 49 20.8328 49C20.6795 49 20.5278 48.9765 20.3862 48.9308C20.2445 48.8851 20.1159 48.8181 20.0075 48.7336L8.34213 39.6431C8.23367 39.5587 8.14763 39.4585 8.08892 39.3481C8.03022 39.2378 8 39.1195 8 39C8 38.8805 8.03022 38.7622 8.08892 38.6519C8.14763 38.5415 8.23367 38.4413 8.34213 38.3568L20.0075 29.2664C20.2264 29.0958 20.5233 29 20.8328 29C21.1424 29 21.4392 29.0958 21.6581 29.2664C21.877 29.437 22 29.6683 22 29.9096C22 30.1508 21.877 30.3821 21.6581 30.5527L10.8166 39L21.6581 47.4473Z" fill="black"/>
</g>
</svg>
