<svg width="30" height="30" viewBox="0 0 30 30" fill="none" xmlns="http://www.w3.org/2000/svg">
<path fill-rule="evenodd" clip-rule="evenodd" d="M23.3308 18.888C23.8352 19.0819 24.0292 19.8379 24.0677 20.1676C24.1457 20.769 23.9714 21.0016 23.7773 21.0016C23.5832 21.0016 23.3114 20.7692 23.021 20.3038C22.7296 19.8377 22.6132 19.3147 22.7688 19.0429C22.8654 18.868 23.0782 18.791 23.3308 18.888ZM20.3832 21.0795C20.6937 21.0795 21.0427 21.215 21.353 21.4863C21.9539 21.9907 22.1289 22.5725 21.8184 22.999C21.6437 23.2124 21.353 23.3482 21.0234 23.3482C20.6937 23.3482 20.3445 23.2318 20.1121 23.0183C19.5691 22.5532 19.4141 21.7768 19.7625 21.3508C19.8987 21.1758 20.1121 21.0795 20.3832 21.0795ZM13.5965 26.6835C6.22674 26.6837 0.25415 20.7107 0.25415 13.3419C0.25415 5.97259 6.2272 0 13.5958 0C20.9646 0 26.9379 5.97305 26.9379 13.3416C26.9379 15.8429 26.2399 18.19 25.0573 20.1872C25.0182 20.2453 24.9211 20.2259 24.9017 20.1482C24.4363 16.8712 22.4392 15.0673 19.5301 14.5246C19.2777 14.4854 19.239 14.3305 19.5688 14.292C20.4609 14.2143 21.7211 14.2335 22.3806 14.3499C22.4198 14.0088 22.4393 13.6656 22.4389 13.3223C22.4389 8.45453 18.4827 4.49824 13.6149 4.49824C8.74786 4.49824 4.79157 8.45453 4.79157 13.3223C4.79157 18.19 8.74786 22.1463 13.6156 22.1463H14.0225C13.8842 21.359 13.8256 20.5598 13.8475 19.7607C13.8676 19.2176 13.9837 19.1397 14.2165 19.5666C15.4383 21.6804 17.1837 23.5808 20.5965 24.3373C23.3889 24.9581 26.1813 25.6752 29.187 29.4955C29.4585 29.8251 29.0517 30.1741 28.7412 29.9028C25.6774 27.1874 22.885 26.2955 20.3443 26.2955C18.8148 26.3062 17.548 26.4171 16.3998 26.5176C15.4078 26.6044 14.5043 26.6835 13.5965 26.6835Z" fill="white"/>
</svg>
