<svg width="30" height="30" viewBox="0 0 30 30" fill="none" xmlns="http://www.w3.org/2000/svg">
<path d="M15 0C12.0333 0 9.13319 0.879734 6.66645 2.52796C4.19972 4.17618 2.27713 6.51886 1.14181 9.25975C0.00649903 12.0006 -0.290551 15.0166 0.288228 17.9263C0.867006 20.8361 2.29562 23.5088 4.3934 25.6066C6.49119 27.7044 9.16393 29.133 12.0736 29.7118C14.9834 30.2905 17.9994 29.9935 20.7403 28.8582C23.4811 27.7229 25.8238 25.8003 27.472 23.3335C29.1203 20.8668 30 17.9667 30 15C29.9956 11.0231 28.4139 7.21032 25.6018 4.39822C22.7897 1.58612 18.9769 0.00436739 15 0ZM15 28.8C12.2706 28.8 9.60253 27.9906 7.33314 26.4743C5.06374 24.9579 3.29496 22.8026 2.25047 20.281C1.20598 17.7594 0.932693 14.9847 1.46517 12.3077C1.99765 9.63081 3.31197 7.17189 5.24193 5.24192C7.1719 3.31196 9.63082 1.99764 12.3078 1.46516C14.9847 0.932687 17.7594 1.20597 20.281 2.25046C22.8027 3.29495 24.9579 5.06373 26.4743 7.33313C27.9906 9.60253 28.8 12.2706 28.8 15C28.796 18.6588 27.3408 22.1665 24.7537 24.7537C22.1665 27.3408 18.6588 28.796 15 28.8ZM19.0245 14.5755C19.0803 14.6312 19.1245 14.6974 19.1547 14.7702C19.1849 14.8431 19.2005 14.9211 19.2005 15C19.2005 15.0788 19.1849 15.1569 19.1547 15.2298C19.1245 15.3026 19.0803 15.3688 19.0245 15.4245L13.0245 21.4245C12.9119 21.5371 12.7592 21.6003 12.6 21.6003C12.4408 21.6003 12.2881 21.5371 12.1755 21.4245C12.0629 21.3119 11.9997 21.1592 11.9997 21C11.9997 20.8408 12.0629 20.6881 12.1755 20.5755L17.751 15L12.1755 9.4245C12.0629 9.31191 11.9997 9.15922 11.9997 9C11.9997 8.84078 12.0629 8.68808 12.1755 8.5755C12.2881 8.46291 12.4408 8.39966 12.6 8.39966C12.7592 8.39966 12.9119 8.46291 13.0245 8.5755L19.0245 14.5755Z" fill="#E10148"/>
</svg>
