<svg width="31" height="31" viewBox="0 0 31 31" fill="none" xmlns="http://www.w3.org/2000/svg">
<path d="M27.1211 5.99219C27.8305 6.90844 28.4216 7.91337 28.9241 8.97741L15.2689 19.0562L9.53491 15.4503V11.135L15.2393 14.7114L27.1211 5.99219Z" fill="#E10148"/>
<path d="M3.71228 15.1552C3.71228 14.9483 3.71228 14.771 3.74184 14.5641L0.283707 14.3867C0.283707 14.6232 0.25415 14.8892 0.25415 15.1256C0.25415 19.2636 1.93888 23.0173 4.65809 25.7365L7.11129 23.2833C5.01277 21.2143 3.71228 18.3473 3.71228 15.1552Z" fill="white"/>
<path d="M15.2395 3.62805C15.4464 3.62805 15.6237 3.62805 15.8306 3.65761L16.008 0.199479C15.7715 0.199479 15.5055 0.169922 15.269 0.169922C11.1311 0.169922 7.37741 1.85465 4.6582 4.57386L7.1114 7.02706C9.18037 4.92854 12.0769 3.62805 15.2395 3.62805Z" fill="white"/>
<path d="M15.2394 26.6822C15.0325 26.6822 14.8552 26.6822 14.6483 26.6527L14.4709 30.1108C14.7074 30.1108 14.9734 30.1403 15.2099 30.1403C19.3478 30.1403 23.1015 28.4556 25.8207 25.7364L23.3675 23.2832C21.2985 25.4113 18.4315 26.6822 15.2394 26.6822Z" fill="white"/>
<path d="M21.7417 5.63816L24.6678 3.48053C22.0964 1.41156 18.8156 0.140625 15.2393 0.140625V3.59875C17.6629 3.62831 19.9092 4.36723 21.7417 5.63816Z" fill="white"/>
<path d="M30.2541 15.1545C30.2541 14.2382 30.1654 13.3515 30.0176 12.4648L26.796 14.8589C26.796 14.9476 26.796 15.0658 26.796 15.1545C26.796 18.5535 25.3181 21.5978 22.9832 23.6964L25.3181 26.2678C28.3329 23.5486 30.2541 19.5584 30.2541 15.1545Z" fill="white"/>
<path d="M15.2393 26.6819C11.8403 26.6819 8.79593 25.2041 6.69741 22.8691L4.12598 25.2041C6.87474 28.2485 10.8353 30.1401 15.2393 30.1401V26.6819Z" fill="white"/>
<path d="M7.52509 6.6144L5.19011 4.04297C2.14578 6.79174 0.25415 10.7523 0.25415 15.1563H3.71228C3.71228 11.7868 5.19011 8.71292 7.52509 6.6144Z" fill="white"/>
</svg>
