<svg width="20" height="21" viewBox="0 0 20 21" fill="none" xmlns="http://www.w3.org/2000/svg">
<path d="M5.34896 0.550049C2.39777 0.550049 0.00012207 2.9477 0.00012207 5.89889V15.2012C0.00012207 18.1524 2.39777 20.55 5.34896 20.55H14.6513C17.6025 20.55 20.0001 18.1524 20.0001 15.2012V5.89889C20.0001 2.9477 17.6025 0.550049 14.6513 0.550049H5.34896ZM5.34896 1.9454H14.6513C16.8536 1.9454 18.6048 3.69659 18.6048 5.89889V15.2012C18.6048 17.4035 16.8536 19.1547 14.6513 19.1547H5.34896C3.14666 19.1547 1.39547 17.4035 1.39547 15.2012V5.89889C1.39547 3.69659 3.14666 1.9454 5.34896 1.9454Z" fill="black"/>
<path d="M6.27922 9.29834C6.1876 9.29834 6.09687 9.31639 6.01223 9.35145C5.92758 9.38651 5.85067 9.4379 5.78589 9.50268C5.7211 9.56747 5.66971 9.64438 5.63465 9.72903C5.59959 9.81367 5.58154 9.90439 5.58154 9.99601V11.4804C5.58154 11.6654 5.65505 11.8429 5.78589 11.9737C5.91673 12.1046 6.09418 12.1781 6.27922 12.1781C6.37084 12.1781 6.46156 12.16 6.54621 12.125C6.63085 12.0899 6.70776 12.0385 6.77255 11.9737C6.83733 11.9089 6.88872 11.832 6.92378 11.7474C6.95885 11.6627 6.97689 11.572 6.97689 11.4804V9.99601C6.97689 9.90439 6.95885 9.81367 6.92378 9.72903C6.88872 9.64438 6.83733 9.56747 6.77255 9.50268C6.70776 9.4379 6.63085 9.38651 6.54621 9.35145C6.46156 9.31639 6.37084 9.29834 6.27922 9.29834Z" fill="white"/>
<path d="M10.0002 6.76733C9.81513 6.76733 9.63767 6.84084 9.50683 6.97168C9.37599 7.10252 9.30249 7.27997 9.30249 7.46501V12.4105C9.30249 12.5021 9.32054 12.5928 9.3556 12.6775C9.39066 12.7621 9.44205 12.839 9.50683 12.9038C9.57162 12.9686 9.64853 13.02 9.73318 13.0551C9.81782 13.0901 9.90854 13.1082 10.0002 13.1082C10.0918 13.1082 10.1825 13.0901 10.2672 13.0551C10.3518 13.02 10.4287 12.9686 10.4935 12.9038C10.5583 12.839 10.6097 12.7621 10.6447 12.6775C10.6798 12.5928 10.6978 12.5021 10.6978 12.4105V7.46501C10.6978 7.37339 10.6798 7.28267 10.6447 7.19802C10.6097 7.11337 10.5583 7.03646 10.4935 6.97168C10.4287 6.90689 10.3518 6.8555 10.2672 6.82044C10.1825 6.78538 10.0918 6.76733 10.0002 6.76733Z" fill="white"/>
<path d="M13.7211 8.25C13.5361 8.25 13.3586 8.32351 13.2278 8.45434C13.0969 8.58518 13.0234 8.76264 13.0234 8.94767V12.4106C13.0234 12.5956 13.0969 12.7731 13.2278 12.9039C13.3586 13.0348 13.5361 13.1083 13.7211 13.1083C13.8127 13.1083 13.9035 13.0902 13.9881 13.0552C14.0727 13.0201 14.1497 12.9687 14.2144 12.9039C14.2792 12.8392 14.3306 12.7622 14.3657 12.6776C14.4007 12.593 14.4188 12.5022 14.4188 12.4106V8.94767C14.4188 8.85605 14.4007 8.76533 14.3657 8.68069C14.3306 8.59604 14.2792 8.51913 14.2144 8.45434C14.1497 8.38956 14.0727 8.33817 13.9881 8.30311C13.9035 8.26805 13.8127 8.25 13.7211 8.25Z" fill="white"/>
</svg>
