<svg width="47" height="15" viewBox="0 0 47 15" fill="none" xmlns="http://www.w3.org/2000/svg">
<path d="M20.2979 14.75H16.5252L18.8831 0.258934H22.6563L20.2979 14.75ZM13.3513 0.258934L9.7545 10.226L9.32888 8.07969L8.05979 1.56369C8.05979 1.56369 7.90629 0.258934 6.27012 0.258934H0.323923L0.25415 0.504302C0.25415 0.504302 2.07251 0.882625 4.20058 2.16063L7.47835 14.7504H11.4093L17.4117 0.258934H13.3513ZM43.0261 14.75H46.4903L43.4699 0.258547H40.4371C39.0366 0.258547 38.6955 1.33848 38.6955 1.33848L33.0687 14.75H37.0016L37.7881 12.5975H42.5842L43.0261 14.75ZM38.8746 9.624L40.8569 4.2011L41.9721 9.624H38.8746ZM33.3637 3.7437L33.9021 0.631831C33.9021 0.631831 32.2407 0 30.5088 0C28.6366 0 24.1905 0.81828 24.1905 4.79727C24.1905 8.54097 29.4087 8.58749 29.4087 10.5539C29.4087 12.5204 24.7281 12.168 23.1834 10.928L22.6225 14.1817C22.6225 14.1817 24.3072 15 26.881 15C29.4556 15 33.3397 13.6669 33.3397 10.0388C33.3397 6.27103 28.0745 5.92023 28.0745 4.28211C28.0749 2.64362 31.7492 2.8541 33.3637 3.7437Z" fill="white"/>
<path d="M9.32927 8.07935L8.05979 1.56256C8.05979 1.56256 7.90629 0.257812 6.27012 0.257812H0.323923L0.25415 0.50318C0.25415 0.50318 3.11212 1.09547 5.85342 3.31464C8.47455 5.43573 9.32927 8.07935 9.32927 8.07935Z" fill="#E10148"/>
</svg>
