<svg width="20" height="21" viewBox="0 0 20 21" fill="none" xmlns="http://www.w3.org/2000/svg">
<g clip-path="url(#clip0_1_123)">
<path fill-rule="evenodd" clip-rule="evenodd" d="M2.32572 10.55C2.32572 6.07917 5.86579 2.45481 10.2327 2.45481C14.5995 2.45481 18.1396 6.07917 18.1396 10.55C18.1396 15.0208 14.5995 18.6452 10.2327 18.6452C8.67714 18.6452 7.22921 18.1863 6.00754 17.3939C5.78018 17.2465 5.50159 17.207 5.24369 17.2858L2.56542 18.1042L3.57383 15.6883C3.69301 15.4028 3.66876 15.0758 3.50884 14.812C2.75891 13.5747 2.32572 12.1156 2.32572 10.55ZM10.2327 0.550051C4.83829 0.550051 0.465261 5.0272 0.465261 10.55C0.465261 12.3005 0.905392 13.9483 1.67886 15.3811L0.0749812 19.2233C-0.0668112 19.563 -0.00395958 19.956 0.236245 20.2316C0.476426 20.5073 0.850656 20.6159 1.19639 20.5101L5.3819 19.2314C6.81171 20.0704 8.46868 20.55 10.2327 20.55C15.6271 20.55 20.0001 16.0728 20.0001 10.55C20.0001 5.02719 15.6271 0.550051 10.2327 0.550051ZM12.3652 12.6285L11.1427 13.5101C10.5701 13.1762 9.93714 12.7101 9.30216 12.06C8.64206 11.3842 8.15269 10.6865 7.79185 10.0465L8.56877 9.37137C8.90215 9.08166 8.99341 8.59322 8.78801 8.19792L7.7981 6.29317C7.66481 6.03668 7.42445 5.85652 7.14537 5.8039C6.86628 5.75128 6.57901 5.83195 6.3652 6.02298L6.07171 6.28524C5.3659 6.91589 4.94848 7.95222 5.29445 9.00157C5.65312 10.0894 6.41857 11.8014 7.98664 13.4068C9.6737 15.1341 11.3873 15.8143 12.3895 16.0784C13.1969 16.2912 13.961 16.006 14.4994 15.5568L15.0497 15.0978C15.285 14.9015 15.412 14.5999 15.3899 14.2899C15.3676 13.9799 15.1991 13.7004 14.9382 13.5413L13.377 12.5889C13.0617 12.3966 12.6654 12.4121 12.3652 12.6285Z" fill="black"/>
</g>
<defs>
<clipPath id="clip0_1_123">
<rect width="20" height="20" fill="white" transform="translate(0.00012207 0.550049)"/>
</clipPath>
</defs>
</svg>
