<svg width="62" height="58" viewBox="0 0 62 58" fill="none" xmlns="http://www.w3.org/2000/svg">
<path d="M2 55.5381H60" stroke="#E10148" stroke-width="3" stroke-linecap="round" stroke-linejoin="round"/>
<path d="M10.9231 55.5385V4.23077C10.9231 3.63913 11.1581 3.07173 11.5765 2.65338C11.9948 2.23503 12.5622 2 13.1538 2H48.8462C49.4378 2 50.0052 2.23503 50.4235 2.65338C50.8419 3.07173 51.0769 3.63913 51.0769 4.23077V55.5385" stroke="#E10148" stroke-width="3" stroke-linecap="round" stroke-linejoin="round"/>
<path d="M39.9231 2C40.5147 2 41.0821 2.23503 41.5005 2.65338C41.9188 3.07173 42.1538 3.63913 42.1538 4.23077V55.5385" stroke="#E10148" stroke-width="3" stroke-linecap="round" stroke-linejoin="round"/>
<path d="M32.1154 33.2304C33.9635 33.2304 35.4616 31.7323 35.4616 29.8842C35.4616 28.0362 33.9635 26.5381 32.1154 26.5381C30.2674 26.5381 28.7693 28.0362 28.7693 29.8842C28.7693 31.7323 30.2674 33.2304 32.1154 33.2304Z" fill="#E10148"/>
</svg>
