<svg width="66" height="49" viewBox="0 0 66 49" fill="none" xmlns="http://www.w3.org/2000/svg">
<path d="M24.0769 22.0769C36.3971 22.0769 46.3846 17.5826 46.3846 12.0385C46.3846 6.49437 36.3971 2 24.0769 2C11.7567 2 1.76923 6.49437 1.76923 12.0385C1.76923 17.5826 11.7567 22.0769 24.0769 22.0769Z" stroke="#E10148" stroke-width="3" stroke-linecap="round" stroke-linejoin="round"/>
<path d="M1.76923 12.0381V23.1919C1.76923 28.7354 11.7575 33.2304 24.0769 33.2304C36.3963 33.2304 46.3846 28.7354 46.3846 23.1919V12.0381" stroke="#E10148" stroke-width="3" stroke-linecap="round" stroke-linejoin="round"/>
<path d="M15.1539 21.2402V32.3941" stroke="#E10148" stroke-width="3" stroke-linecap="round" stroke-linejoin="round"/>
<path d="M46.3844 15.585C56.5679 16.5163 64.2306 20.5652 64.2306 25.4227C64.2306 30.9661 54.2423 35.4611 41.9229 35.4611C36.4575 35.4611 31.4494 34.5772 27.5707 33.1077" stroke="#E10148" stroke-width="3" stroke-linecap="round" stroke-linejoin="round"/>
<path d="M19.6154 33.0298V36.5767C19.6154 42.1202 29.6036 46.6152 41.923 46.6152C54.2425 46.6152 64.2307 42.1202 64.2307 36.5767V25.4229" stroke="#E10148" stroke-width="3" stroke-linecap="round" stroke-linejoin="round"/>
<path d="M50.8461 34.625V45.7788" stroke="#E10148" stroke-width="3" stroke-linecap="round" stroke-linejoin="round"/>
<path d="M33 21.2402V45.7787" stroke="#E10148" stroke-width="3" stroke-linecap="round" stroke-linejoin="round"/>
</svg>
