<svg width="54" height="53" viewBox="0 0 54 53" fill="none" xmlns="http://www.w3.org/2000/svg">
<path d="M41.4999 2H49.3076C49.8993 2 50.4667 2.23503 50.885 2.65338C51.3034 3.07173 51.5384 3.63913 51.5384 4.23077V12.0385" stroke="#E10148" stroke-width="3" stroke-linecap="round" stroke-linejoin="round"/>
<path d="M41.5001 51.0765H49.3078C49.8994 51.0765 50.4668 50.8415 50.8851 50.4232C51.3035 50.0048 51.5385 49.4374 51.5385 48.8458V41.0381" stroke="#E10148" stroke-width="3" stroke-linecap="round" stroke-linejoin="round"/>
<path d="M12.4999 51.0765H4.69226C4.10062 51.0765 3.53321 50.8415 3.11486 50.4232C2.69651 50.0048 2.46149 49.4374 2.46149 48.8458V41.0381" stroke="#E10148" stroke-width="3" stroke-linecap="round" stroke-linejoin="round"/>
<path d="M12.4999 2H4.69226C4.10062 2 3.53321 2.23503 3.11486 2.65338C2.69651 3.07173 2.46149 3.63913 2.46149 4.23077V12.0385" stroke="#E10148" stroke-width="3" stroke-linecap="round" stroke-linejoin="round"/>
<path d="M27 31.0005C31.9281 31.0005 35.9231 27.0055 35.9231 22.0774C35.9231 17.1493 31.9281 13.1543 27 13.1543C22.072 13.1543 18.077 17.1493 18.077 22.0774C18.077 27.0055 22.072 31.0005 27 31.0005Z" stroke="#E10148" stroke-width="3" stroke-linecap="round" stroke-linejoin="round"/>
<path d="M13.6153 37.6923C15.1737 35.6144 17.1946 33.9279 19.5177 32.7663C21.8409 31.6047 24.4026 31 26.9999 31C29.5973 31 32.159 31.6047 34.4822 32.7663C36.8053 33.9279 38.8261 35.6144 40.3846 37.6923" stroke="#E10148" stroke-width="3" stroke-linecap="round" stroke-linejoin="round"/>
</svg>
