<svg width="61" height="62" viewBox="0 0 61 62" fill="none" xmlns="http://www.w3.org/2000/svg">
<path d="M9.99365 51.5063C7.42827 48.941 9.12923 43.5509 7.82423 40.3943C6.46904 37.1346 1.5 34.4856 1.5 31C1.5 27.5144 6.46904 24.8654 7.82423 21.6057C9.12923 18.4519 7.42827 13.059 9.99365 10.4937C12.559 7.92827 17.9519 9.62923 21.1057 8.32423C24.3793 6.96904 27.0144 2 30.5 2C33.9856 2 36.6346 6.96904 39.8943 8.32423C43.0509 9.62923 48.441 7.92827 51.0063 10.4937C53.5717 13.059 51.8708 18.4491 53.1758 21.6057C54.531 24.8793 59.5 27.5144 59.5 31C59.5 34.4856 54.531 37.1346 53.1758 40.3943C51.8708 43.5509 53.5717 48.941 51.0063 51.5063C48.441 54.0717 43.0509 52.3708 39.8943 53.6758C36.6346 55.031 33.9856 60 30.5 60C27.0144 60 24.3654 55.031 21.1057 53.6758C17.9519 52.3708 12.559 54.0717 9.99365 51.5063Z" stroke="#E10148" stroke-width="3" stroke-linecap="round" stroke-linejoin="round"/>
<path d="M19.3461 33.2307L26.0384 39.923L41.6538 24.3076" stroke="#E10148" stroke-width="3" stroke-linecap="round" stroke-linejoin="round"/>
</svg>
