<svg width="69" height="65" viewBox="0 0 69 65" fill="none" xmlns="http://www.w3.org/2000/svg">
<path d="M67.7222 62.4H58.7778V3.9C58.7778 2.86566 58.3739 1.87368 57.655 1.14228C56.9361 0.410892 55.9611 0 54.9444 0H14.0556C13.0389 0 12.0639 0.410892 11.345 1.14228C10.6261 1.87368 10.2222 2.86566 10.2222 3.9V62.4H1.27778C0.93889 62.4 0.613882 62.537 0.374253 62.7808C0.134623 63.0246 0 63.3552 0 63.7C0 64.0448 0.134623 64.3754 0.374253 64.6192C0.613882 64.863 0.93889 65 1.27778 65H67.7222C68.0611 65 68.3861 64.863 68.6257 64.6192C68.8654 64.3754 69 64.0448 69 63.7C69 63.3552 68.8654 63.0246 68.6257 62.7808C68.3861 62.537 68.0611 62.4 67.7222 62.4ZM56.2222 3.9V62.4H48.5556V3.9C48.5554 3.45678 48.4798 3.01693 48.3319 2.6H54.9444C55.2833 2.6 55.6083 2.73696 55.848 2.98076C56.0876 3.22456 56.2222 3.55522 56.2222 3.9ZM12.7778 3.9C12.7778 3.55522 12.9124 3.22456 13.152 2.98076C13.3917 2.73696 13.7167 2.6 14.0556 2.6H44.7222C45.0611 2.6 45.3861 2.73696 45.6257 2.98076C45.8654 3.22456 46 3.55522 46 3.9V62.4H12.7778V3.9ZM39.6111 33.8C39.6111 34.5713 39.3863 35.3254 38.9651 35.9667C38.5439 36.6081 37.9452 37.1079 37.2447 37.4031C36.5443 37.6983 35.7735 37.7755 35.0299 37.6251C34.2863 37.4746 33.6033 37.1031 33.0672 36.5577C32.5311 36.0123 32.166 35.3174 32.0181 34.5608C31.8702 33.8043 31.9461 33.0202 32.2362 32.3075C32.5264 31.5949 33.0177 30.9858 33.6481 30.5573C34.2785 30.1287 35.0196 29.9 35.7778 29.9C36.7944 29.9 37.7695 30.3109 38.4884 31.0423C39.2072 31.7737 39.6111 32.7657 39.6111 33.8Z" fill="#0148E1"/>
</svg>
