<svg width="73" height="65" viewBox="0 0 63 49" fill="none" xmlns="http://www.w3.org/2000/svg">
<path d="M62.0062 7.54499L55.2578 0.982305C54.9443 0.670948 54.5718 0.423903 54.1617 0.255337C53.7516 0.0867706 53.3118 0 52.8678 0C52.4237 0 51.9839 0.0867706 51.5738 0.255337C51.1637 0.423903 50.7912 0.670948 50.4777 0.982305L24.4093 26.4037C24.3048 26.5072 24.1808 26.5893 24.0442 26.6453C23.9077 26.7014 23.7613 26.7302 23.6135 26.7302C23.4657 26.7302 23.3194 26.7014 23.1828 26.6453C23.0463 26.5893 22.9223 26.5072 22.8178 26.4037V26.387L12.5209 16.568C12.2074 16.2566 11.8349 16.0096 11.4248 15.841C11.0147 15.6725 10.5749 15.5857 10.1308 15.5857C9.68676 15.5857 9.24704 15.6725 8.8369 15.841C8.42676 16.0096 8.05427 16.2566 7.7408 16.568L0.992423 23.2476C0.677858 23.5579 0.428269 23.9265 0.257967 24.3325C0.0876648 24.7385 0 25.1737 0 25.6133C0 26.0528 0.0876648 26.4881 0.257967 26.894C0.428269 27.3 0.677858 27.6687 0.992423 27.9789L21.1279 48.0177C21.4414 48.329 21.8138 48.5761 22.224 48.7447C22.6341 48.9132 23.0738 49 23.5179 49C23.962 49 24.4018 48.9132 24.8119 48.7447C25.222 48.5761 25.5945 48.329 25.908 48.0177L62.0118 12.2736C62.3256 11.963 62.5744 11.5942 62.7439 11.1883C62.9135 10.7824 63.0005 10.3474 63 9.90813C62.9995 9.4689 62.9114 9.03409 62.7409 8.62858C62.5704 8.22308 62.3207 7.85486 62.0062 7.54499ZM60.4231 10.7011L24.3165 46.4369C24.1056 46.6451 23.82 46.762 23.5222 46.762C23.2243 46.762 22.9387 46.6451 22.7278 46.4369L2.59235 26.3981C2.48778 26.2947 2.40482 26.1719 2.34822 26.0368C2.29162 25.9016 2.26248 25.7568 2.26248 25.6105C2.26248 25.4642 2.29162 25.3193 2.34822 25.1842C2.40482 25.049 2.48778 24.9262 2.59235 24.8228L9.34072 18.1433C9.44525 18.0399 9.56933 17.958 9.70587 17.9021C9.84241 17.8462 9.98873 17.8175 10.1365 17.8176C10.2881 17.8178 10.4382 17.8476 10.5782 17.9054C10.7181 17.9632 10.8451 18.0478 10.9519 18.1544L21.26 27.9762C21.8924 28.5991 22.7482 28.9487 23.6403 28.9487C24.5324 28.9487 25.3881 28.5991 26.0205 27.9762L52.0889 2.55757C52.1934 2.45323 52.3178 2.37041 52.4549 2.31389C52.5919 2.25737 52.739 2.22827 52.8874 2.22827C53.0359 2.22827 53.1829 2.25737 53.32 2.31389C53.457 2.37041 53.5814 2.45323 53.686 2.55757L60.4344 9.12026C60.5391 9.22449 60.6219 9.3482 60.678 9.48426C60.7341 9.62032 60.7625 9.76603 60.7614 9.913C60.7604 10.06 60.73 10.2053 60.6719 10.3405C60.6138 10.4758 60.5293 10.5983 60.4231 10.7011Z" fill="#0148E1"/>
</svg>
