<svg width="56" height="59" viewBox="0 0 55 59" fill="none" xmlns="http://www.w3.org/2000/svg">
<path d="M54.1052 15.3535L40.6903 0.963892C40.4064 0.658371 40.0692 0.415957 39.6978 0.250551C39.3264 0.0851446 38.9283 0 38.5262 0C38.124 0 37.7259 0.0851446 37.3545 0.250551C36.9832 0.415957 36.6459 0.658371 36.362 0.963892L0.898606 39.012C0.613779 39.3165 0.387784 39.6783 0.233581 40.0766C0.0793776 40.475 0 40.9021 0 41.3334C0 41.7647 0.0793776 42.1918 0.233581 42.5901C0.387784 42.9885 0.613779 43.3503 0.898606 43.6547L14.3136 58.0361C14.5974 58.3416 14.9347 58.584 15.306 58.7494C15.6774 58.9149 16.0756 59 16.4777 59C16.8798 59 17.2779 58.9149 17.6493 58.7494C18.0207 58.584 18.3579 58.3416 18.6418 58.0361L54.1052 19.988C54.6781 19.3734 55 18.5398 55 17.6707C55 16.8016 54.6781 15.9681 54.1052 15.3535ZM52.6642 18.4422L17.1931 56.4904C17.0022 56.6947 16.7435 56.8094 16.4739 56.8094C16.2042 56.8094 15.9455 56.6947 15.7546 56.4904L2.33965 42.1008C2.1492 41.896 2.04224 41.6185 2.04224 41.3293C2.04224 41.04 2.1492 40.7626 2.33965 40.5578L11.2074 31.0457L18.6341 39.012C18.7288 39.1135 18.8411 39.194 18.9647 39.249C19.0884 39.3039 19.2209 39.3322 19.3547 39.3322C19.4885 39.3322 19.621 39.3039 19.7446 39.249C19.8682 39.194 19.9806 39.1135 20.0752 39.012C20.1698 38.9105 20.2449 38.7901 20.2961 38.6574C20.3473 38.5248 20.3736 38.3827 20.3736 38.2392C20.3736 38.0956 20.3473 37.9535 20.2961 37.8209C20.2449 37.6883 20.1698 37.5678 20.0752 37.4663L12.6459 29.5L19.3547 22.3066L26.7814 30.2729C26.9725 30.4778 27.2317 30.593 27.5019 30.593C27.7722 30.593 28.0313 30.4778 28.2224 30.2729C28.4135 30.0679 28.5209 29.7899 28.5209 29.5C28.5209 29.2101 28.4135 28.9321 28.2224 28.7271L20.7932 20.7608L27.5019 13.5674L34.9286 21.5337C35.0233 21.6352 35.1356 21.7157 35.2592 21.7706C35.3828 21.8256 35.5154 21.8538 35.6492 21.8538C35.783 21.8538 35.9155 21.8256 36.0391 21.7706C36.1627 21.7157 36.2751 21.6352 36.3697 21.5337C36.4643 21.4322 36.5394 21.3117 36.5906 21.1791C36.6418 21.0465 36.6681 20.9044 36.6681 20.7608C36.6681 20.6173 36.6418 20.4752 36.5906 20.3426C36.5394 20.2099 36.4643 20.0895 36.3697 19.988L28.943 12.0217L37.8107 2.50963C38.0016 2.30534 38.2603 2.19061 38.53 2.19061C38.7997 2.19061 39.0583 2.30534 39.2492 2.50963L52.6642 16.8992C52.8546 17.104 52.9616 17.3815 52.9616 17.6707C52.9616 17.96 52.8546 18.2374 52.6642 18.4422Z" fill="#0148E1"/>
</svg>
