<svg width="63" height="65" viewBox="0 0 63 65" fill="none" xmlns="http://www.w3.org/2000/svg">
<path d="M63 4.23913V14.1304C63 14.5052 62.8557 14.8646 62.5989 15.1296C62.342 15.3946 61.9937 15.5435 61.6304 15.5435C61.2672 15.5435 60.9188 15.3946 60.662 15.1296C60.4052 14.8646 60.2609 14.5052 60.2609 14.1304V4.23913C60.2609 3.86437 60.1166 3.50496 59.8597 3.23996C59.6029 2.97496 59.2545 2.82609 58.8913 2.82609H49.3043C48.9411 2.82609 48.5928 2.67721 48.3359 2.41222C48.0791 2.14722 47.9348 1.78781 47.9348 1.41304C47.9348 1.03828 48.0791 0.678868 48.3359 0.413871C48.5928 0.148874 48.9411 0 49.3043 0H58.8913C59.981 0 61.0261 0.446621 61.7966 1.24161C62.5671 2.0366 63 3.11484 63 4.23913ZM61.6304 49.4565C61.2672 49.4565 60.9188 49.6054 60.662 49.8704C60.4052 50.1354 60.2609 50.4948 60.2609 50.8696V60.7609C60.2609 61.1356 60.1166 61.495 59.8597 61.76C59.6029 62.025 59.2545 62.1739 58.8913 62.1739H49.3043C48.9411 62.1739 48.5928 62.3228 48.3359 62.5878C48.0791 62.8528 47.9348 63.2122 47.9348 63.587C47.9348 63.9617 48.0791 64.3211 48.3359 64.5861C48.5928 64.8511 48.9411 65 49.3043 65H58.8913C59.981 65 61.0261 64.5534 61.7966 63.7584C62.5671 62.9634 63 61.8852 63 60.7609V50.8696C63 50.4948 62.8557 50.1354 62.5989 49.8704C62.342 49.6054 61.9937 49.4565 61.6304 49.4565ZM13.6957 62.1739H4.1087C3.74546 62.1739 3.39711 62.025 3.14027 61.76C2.88342 61.495 2.73913 61.1356 2.73913 60.7609V50.8696C2.73913 50.4948 2.59484 50.1354 2.33799 49.8704C2.08115 49.6054 1.7328 49.4565 1.36957 49.4565C1.00633 49.4565 0.65798 49.6054 0.401137 49.8704C0.144293 50.1354 0 50.4948 0 50.8696V60.7609C0 61.8852 0.432879 62.9634 1.20341 63.7584C1.97394 64.5534 3.019 65 4.1087 65H13.6957C14.0589 65 14.4072 64.8511 14.6641 64.5861C14.9209 64.3211 15.0652 63.9617 15.0652 63.587C15.0652 63.2122 14.9209 62.8528 14.6641 62.5878C14.4072 62.3228 14.0589 62.1739 13.6957 62.1739ZM1.36957 15.5435C1.7328 15.5435 2.08115 15.3946 2.33799 15.1296C2.59484 14.8646 2.73913 14.5052 2.73913 14.1304V4.23913C2.73913 3.86437 2.88342 3.50496 3.14027 3.23996C3.39711 2.97496 3.74546 2.82609 4.1087 2.82609H13.6957C14.0589 2.82609 14.4072 2.67721 14.6641 2.41222C14.9209 2.14722 15.0652 1.78781 15.0652 1.41304C15.0652 1.03828 14.9209 0.678868 14.6641 0.413871C14.4072 0.148874 14.0589 0 13.6957 0H4.1087C3.019 0 1.97394 0.446621 1.20341 1.24161C0.432879 2.0366 0 3.11484 0 4.23913V14.1304C0 14.5052 0.144293 14.8646 0.401137 15.1296C0.65798 15.3946 1.00633 15.5435 1.36957 15.5435ZM47.9348 48.0435C47.7222 48.0435 47.5125 47.9924 47.3223 47.8943C47.1321 47.7962 46.9667 47.6538 46.8391 47.4783C45.0531 45.0213 42.7372 43.0272 40.0748 41.6537C37.4124 40.2803 34.4767 39.5652 31.5 39.5652C28.5233 39.5652 25.5876 40.2803 22.9252 41.6537C20.2628 43.0272 17.9469 45.0213 16.1609 47.4783C15.9429 47.7781 15.6185 47.9763 15.2589 48.0293C14.8993 48.0823 14.5341 47.9857 14.2435 47.7609C13.9529 47.536 13.7608 47.2013 13.7094 46.8303C13.658 46.4593 13.7516 46.0824 13.9696 45.7826C16.7491 41.9359 20.6483 39.1074 25.0973 37.7106C22.7991 36.2692 21.0208 34.0917 20.0339 31.5104C19.0469 28.9291 18.9053 26.0855 19.6307 23.4134C20.3561 20.7413 21.9087 18.3874 24.0517 16.7106C26.1947 15.0338 28.8104 14.1261 31.5 14.1261C34.1896 14.1261 36.8053 15.0338 38.9483 16.7106C41.0913 18.3874 42.6439 20.7413 43.3693 23.4134C44.0947 26.0855 43.9531 28.9291 42.9661 31.5104C41.9792 34.0917 40.201 36.2692 37.9027 37.7106C42.3517 39.1074 46.2509 41.9359 49.0304 45.7826C49.183 45.9925 49.276 46.2422 49.2988 46.5035C49.3217 46.7649 49.2735 47.0277 49.1598 47.2624C49.046 47.4971 48.8712 47.6945 48.6548 47.8324C48.4384 47.9704 48.1891 48.0435 47.9348 48.0435ZM31.5 36.7391C33.3961 36.7391 35.2497 36.159 36.8262 35.0721C38.4028 33.9853 39.6316 32.4405 40.3572 30.6331C41.0828 28.8257 41.2727 26.8369 40.9027 24.9181C40.5328 22.9994 39.6198 21.2369 38.279 19.8536C36.9382 18.4703 35.23 17.5282 33.3703 17.1466C31.5106 16.7649 29.583 16.9608 27.8312 17.7095C26.0794 18.4581 24.5822 19.7259 23.5287 21.3525C22.4753 22.9791 21.913 24.8915 21.913 26.8478C21.913 29.4712 22.9231 31.9871 24.721 33.842C26.5189 35.697 28.9574 36.7391 31.5 36.7391Z" fill="#0148E1"/>
</svg>
