<svg width="63" height="64" viewBox="0 0 63 57" fill="none" xmlns="http://www.w3.org/2000/svg">
<path d="M63 26.0213C63.0026 23.3575 62.3831 20.7345 61.197 18.3873C60.011 16.0401 58.2953 14.042 56.2038 12.5718C54.1122 11.1016 51.71 10.2053 49.2123 9.9631C46.7146 9.72089 44.1993 10.1404 41.8916 11.184C39.584 12.2276 37.5561 13.8627 35.9894 15.943C34.4227 18.0232 33.3663 20.4837 32.9146 23.104C32.463 25.7243 32.6302 28.4227 33.4013 30.9575C34.1725 33.4923 35.5235 35.7845 37.3333 37.6287V55.76C37.3332 55.9713 37.3839 56.1792 37.4807 56.3638C37.5776 56.5484 37.7172 56.7037 37.8864 56.8148C38.0557 56.9259 38.2489 56.9893 38.4476 56.9987C38.6464 57.0082 38.8441 56.9636 39.0221 56.869L47.8333 52.1883L56.6446 56.869C56.8069 56.9543 56.9855 56.9988 57.1667 56.9991C57.4761 56.9991 57.7728 56.8686 57.9916 56.6362C58.2104 56.4038 58.3333 56.0886 58.3333 55.76V37.6287C59.8088 36.1289 60.983 34.3272 61.7851 32.3323C62.5871 30.3373 63.0004 28.1905 63 26.0213ZM35 26.0213C35 23.3255 35.7527 20.6903 37.1628 18.4488C38.5729 16.2073 40.5772 14.4603 42.9222 13.4287C45.2672 12.397 47.8476 12.1271 50.337 12.653C52.8264 13.1789 55.1131 14.4771 56.9079 16.3833C58.7026 18.2895 59.9249 20.7182 60.4201 23.3622C60.9152 26.0062 60.6611 28.7468 59.6898 31.2374C58.7185 33.728 57.0736 35.8567 54.9631 37.3544C52.8527 38.8522 50.3715 39.6516 47.8333 39.6516C44.4309 39.6475 41.1689 38.2101 38.7631 35.6548C36.3572 33.0996 35.0039 29.635 35 26.0213ZM56 53.7557L48.3554 49.6945C48.1933 49.6084 48.0146 49.5636 47.8333 49.5636C47.6521 49.5636 47.4733 49.6084 47.3112 49.6945L39.6667 53.7557V39.5834C42.1029 41.2459 44.9376 42.1297 47.8333 42.1297C50.729 42.1297 53.5638 41.2459 56 39.5834V53.7557ZM30.3333 45.8471C30.3333 46.1757 30.2104 46.4909 29.9916 46.7233C29.7728 46.9557 29.4761 47.0862 29.1667 47.0862H3.5C2.57174 47.0862 1.6815 46.6946 1.02513 45.9974C0.368749 45.3003 0 44.3548 0 43.3689V3.71733C0 2.73144 0.368749 1.78592 1.02513 1.08878C1.6815 0.391646 2.57174 0 3.5 0H54.8333C55.7616 0 56.6518 0.391646 57.3082 1.08878C57.9646 1.78592 58.3333 2.73144 58.3333 3.71733C58.3333 4.04597 58.2104 4.36114 57.9916 4.59352C57.7728 4.8259 57.4761 4.95644 57.1667 4.95644C56.8572 4.95644 56.5605 4.8259 56.3417 4.59352C56.1229 4.36114 56 4.04597 56 3.71733C56 3.3887 55.8771 3.07353 55.6583 2.84115C55.4395 2.60877 55.1427 2.47822 54.8333 2.47822H3.5C3.19058 2.47822 2.89383 2.60877 2.67504 2.84115C2.45625 3.07353 2.33333 3.3887 2.33333 3.71733V43.3689C2.33333 43.6975 2.45625 44.0127 2.67504 44.2451C2.89383 44.4775 3.19058 44.608 3.5 44.608H29.1667C29.4761 44.608 29.7728 44.7385 29.9916 44.9709C30.2104 45.2033 30.3333 45.5185 30.3333 45.8471ZM25.6667 28.4996C25.6667 28.8282 25.5437 29.1434 25.325 29.3757C25.1062 29.6081 24.8094 29.7387 24.5 29.7387H12.8333C12.5239 29.7387 12.2272 29.6081 12.0084 29.3757C11.7896 29.1434 11.6667 28.8282 11.6667 28.4996C11.6667 28.1709 11.7896 27.8557 12.0084 27.6234C12.2272 27.391 12.5239 27.2604 12.8333 27.2604H24.5C24.8094 27.2604 25.1062 27.391 25.325 27.6234C25.5437 27.8557 25.6667 28.1709 25.6667 28.4996ZM25.6667 18.5867C25.6667 18.9153 25.5437 19.2305 25.325 19.4629C25.1062 19.6952 24.8094 19.8258 24.5 19.8258H12.8333C12.5239 19.8258 12.2272 19.6952 12.0084 19.4629C11.7896 19.2305 11.6667 18.9153 11.6667 18.5867C11.6667 18.258 11.7896 17.9429 12.0084 17.7105C12.2272 17.4781 12.5239 17.3476 12.8333 17.3476H24.5C24.8094 17.3476 25.1062 17.4781 25.325 17.7105C25.5437 17.9429 25.6667 18.258 25.6667 18.5867Z" fill="#0148E1"/>
</svg>
