<svg width="51" height="55" viewBox="0 0 51 55" fill="none" xmlns="http://www.w3.org/2000/svg">
<path d="M33.0008 31.9C33.0008 32.1917 33.1166 32.4715 33.3229 32.6778C33.5292 32.8841 33.809 33 34.1008 33L44.6442 33L34.989 42.6552C33.8682 43.7824 32.535 44.6761 31.0664 45.2846C29.5979 45.893 28.0233 46.2042 26.4338 46.2L15.321 46.2C15.0429 44.2732 14.0453 42.5233 12.529 41.3025C11.0127 40.0816 9.09029 39.4804 7.14858 39.6198C5.20686 39.7592 3.39002 40.6289 2.06369 42.0538C0.737361 43.4788 -4.21672e-07 45.3533 -3.36578e-07 47.3C-2.51485e-07 49.2467 0.737362 51.1212 2.06369 52.5461C3.39002 53.9711 5.20687 54.8408 7.14858 54.9802C9.09029 55.1196 11.0127 54.5184 12.529 53.2975C14.0453 52.0766 15.0429 50.3267 15.321 48.4L26.4338 48.4C28.3124 48.4051 30.1735 48.0376 31.9092 47.3187C33.6448 46.5998 35.2207 45.5438 36.5455 44.2117L46.2007 34.5565L46.2007 45.1C46.2007 45.3917 46.3166 45.6715 46.5229 45.8778C46.7292 46.0841 47.009 46.2 47.3007 46.2C47.5925 46.2 47.8723 46.0841 48.0786 45.8778C48.2849 45.6715 48.4007 45.3917 48.4007 45.1L48.4007 31.9C48.4007 31.6083 48.2849 31.3285 48.0786 31.1222C47.8723 30.9159 47.5925 30.8 47.3007 30.8L34.1008 30.8C33.809 30.8 33.5292 30.9159 33.3229 31.1222C33.1166 31.3285 33.0008 31.6083 33.0008 31.9ZM7.70077 52.8C6.61297 52.8 5.5496 52.4774 4.64513 51.8731C3.74066 51.2687 3.03572 50.4097 2.61943 49.4047C2.20315 48.3998 2.09423 47.2939 2.30645 46.227C2.51867 45.1601 3.0425 44.1801 3.81168 43.4109C4.58087 42.6417 5.56088 42.1179 6.62777 41.9057C7.69467 41.6935 8.80053 41.8024 9.80553 42.2187C10.8105 42.6349 11.6695 43.3399 12.2738 44.2444C12.8782 45.1488 13.2008 46.2122 13.2008 47.3C13.2008 48.7587 12.6213 50.1576 11.5899 51.1891C10.5584 52.2205 9.15946 52.8 7.70077 52.8ZM35.2805 6.6L24.1678 6.60001C22.2891 6.59485 20.4281 6.96236 18.6924 7.68128C16.9567 8.40019 15.3808 9.45623 14.056 10.7883L4.40077 20.4435L4.40077 9.90001C4.40077 9.60827 4.28488 9.32848 4.07859 9.12219C3.8723 8.9159 3.59251 8.80001 3.30077 8.80001C3.00903 8.80001 2.72924 8.9159 2.52295 9.12219C2.31666 9.32848 2.20077 9.60827 2.20077 9.90001L2.20077 23.1C2.20077 23.3917 2.31666 23.6715 2.52295 23.8778C2.72924 24.0841 3.00903 24.2 3.30077 24.2L16.5008 24.2C16.7925 24.2 17.0723 24.0841 17.2786 23.8778C17.4849 23.6715 17.6008 23.3917 17.6008 23.1C17.6008 22.8083 17.4849 22.5285 17.2786 22.3222C17.0723 22.1159 16.7925 22 16.5008 22L5.95727 22L15.6125 12.3448C16.7333 11.2176 18.0666 10.3239 19.5351 9.71543C21.0036 9.10697 22.5782 8.79583 24.1678 8.80001L35.2805 8.80001C35.5586 10.7268 36.5562 12.4766 38.0725 13.6975C39.5888 14.9184 41.5112 15.5196 43.4529 15.3802C45.3947 15.2408 47.2115 14.3711 48.5378 12.9461C49.8642 11.5212 50.6015 9.64672 50.6015 7.70001C50.6015 5.75329 49.8642 3.87883 48.5378 2.45386C47.2115 1.02889 45.3947 0.159185 43.4529 0.0197773C41.5112 -0.119631 39.5888 0.481608 38.0725 1.70249C36.5562 2.92336 35.5586 4.67326 35.2805 6.6ZM48.4007 7.70001C48.4007 8.7878 48.0782 9.85117 47.4738 10.7556C46.8695 11.6601 46.0105 12.3651 45.0055 12.7813C44.0005 13.1976 42.8946 13.3065 41.8277 13.0943C40.7609 12.8821 39.7809 12.3583 39.0117 11.5891C38.2425 10.8199 37.7186 9.8399 37.5064 8.773C37.2942 7.70611 37.4031 6.60024 37.8194 5.59525C38.2357 4.59025 38.9406 3.73127 39.8451 3.12692C40.7496 2.52258 41.813 2.20001 42.9007 2.20001C44.3594 2.20001 45.7584 2.77947 46.7898 3.81092C47.8213 4.84237 48.4007 6.24132 48.4007 7.70001Z" fill="#E10148"/>
</svg>
