<svg width="55" height="56" viewBox="0 0 55 56" fill="none" xmlns="http://www.w3.org/2000/svg">
<path d="M31.9796 15.84C31.8396 15.84 31.6996 15.92 31.5796 16.04L28.5996 19.1L29.4396 19.88L31.3596 17.92V28H32.5596V16.44C32.5596 16.18 32.4996 15.98 32.2596 15.88C32.1796 15.84 32.0596 15.84 31.9796 15.84Z" fill="#E10148"/>
<path fill-rule="evenodd" clip-rule="evenodd" d="M54.3896 10.6768C54.5298 10.7426 54.6539 10.8384 54.7531 10.9575C54.8527 11.0764 54.9249 11.2157 54.9646 11.3655C55.0044 11.5154 55.0107 11.6722 54.9831 11.8248L51.7678 29.5038C51.5461 30.7223 50.9038 31.8243 49.9528 32.6178C49.0019 33.4112 47.8026 33.8457 46.5641 33.8455H14.6408L15.6985 39.7024C15.8316 40.4331 16.2167 41.0939 16.7868 41.5698C17.357 42.0457 18.076 42.3066 18.8186 42.3069H44.4223C45.8755 42.3058 47.2851 42.8035 48.4155 43.7168C49.5459 44.6301 50.3285 45.9038 50.6327 47.3248C50.9368 48.7459 50.744 50.2283 50.0865 51.5243C49.429 52.8202 48.3466 53.8513 47.0202 54.4451C45.6938 55.0389 44.2038 55.1594 42.7992 54.7866C41.3946 54.4138 40.1605 53.5702 39.3031 52.3968C38.4458 51.2234 38.0172 49.7913 38.0889 48.3398C38.1606 46.8883 38.7283 45.5055 39.6971 44.4223H23.7633C24.6298 45.3886 25.1792 46.5975 25.3374 47.8858C25.4956 49.1741 25.2549 50.4799 24.6478 51.6272C24.0407 52.7745 23.0964 53.708 21.9422 54.3019C20.7881 54.8957 19.4795 55.1214 18.1931 54.9485C16.9067 54.7756 15.7043 54.2123 14.7479 53.3347C13.7916 52.4571 13.1273 51.3073 12.8448 50.0405C12.5622 48.7736 12.675 47.4506 13.1677 46.2498C13.6605 45.049 14.5097 44.0281 15.6007 43.3249C14.5602 42.5268 13.8535 41.3705 13.6175 40.0805L6.87488 2.98264C6.82982 2.73625 6.69879 2.51384 6.5051 2.35502C6.31141 2.19619 6.06765 2.11126 5.8172 2.11535H1.05767C0.777161 2.11535 0.508137 2.00391 0.309785 1.80556C0.111433 1.60721 0 1.33819 0 1.05767C0 0.777162 0.111433 0.508139 0.309785 0.309787C0.508137 0.111434 0.777161 1.90915e-07 1.05767 1.90915e-07H5.83042C6.57354 -0.000257478 7.29318 0.260315 7.86386 0.736285C8.43454 1.21226 8.82006 1.87343 8.9532 2.60452L10.4022 10.5767H53.9413C54.0963 10.5769 54.2493 10.611 54.3896 10.6768ZM22.5558 51.0034C23.0207 50.3077 23.2688 49.4897 23.2688 48.653C23.2688 47.5309 22.8231 46.4548 22.0297 45.6614C21.2363 44.868 20.1602 44.4223 19.0381 44.4223C18.2014 44.4223 17.3834 44.6704 16.6877 45.1353C15.9919 45.6002 15.4497 46.2609 15.1295 47.034C14.8093 47.807 14.7255 48.6577 14.8887 49.4783C15.052 50.299 15.4549 51.0528 16.0466 51.6445C16.6382 52.2362 17.3921 52.6391 18.2128 52.8024C19.0334 52.9656 19.8841 52.8818 20.6571 52.5616C21.4302 52.2414 22.0909 51.6992 22.5558 51.0034ZM47.94 51.0034C48.4048 50.3077 48.653 49.4897 48.653 48.653C48.653 47.5309 48.2072 46.4548 47.4138 45.6614C46.6204 44.868 45.5443 44.4223 44.4223 44.4223C43.5855 44.4223 42.7676 44.6704 42.0718 45.1353C41.3761 45.6002 40.8338 46.2609 40.5136 47.034C40.1934 47.807 40.1096 48.6577 40.2729 49.4783C40.4361 50.299 40.8391 51.0528 41.4307 51.6445C42.0224 52.2362 42.7762 52.6391 43.5969 52.8024C44.4176 52.9656 45.2682 52.8818 46.0413 52.5616C46.8144 52.2414 47.4751 51.6992 47.94 51.0034ZM48.5975 30.9939C49.1682 30.5179 49.5537 29.8568 49.6868 29.1257L52.6748 12.6921H10.7856L14.2469 31.7302H46.5641C47.3072 31.7305 48.0268 31.4699 48.5975 30.9939Z" fill="#E10148"/>
</svg>
