<svg width="55" height="55" viewBox="0 0 55 55" fill="none" xmlns="http://www.w3.org/2000/svg">
<path d="M52.9802 2.01362C52.3419 1.37523 51.5841 0.868823 50.75 0.523324C49.916 0.177826 49.0221 0 48.1193 0C47.2165 0 46.3226 0.177826 45.4885 0.523324C44.6545 0.868823 43.8967 1.37523 43.2583 2.01362L43.2215 2.0529L29.7434 17.0703C29.6543 17.1698 29.5459 17.2501 29.4247 17.3063C29.3036 17.3625 29.1722 17.3934 29.0387 17.3971C28.9052 17.4007 28.7723 17.3771 28.6482 17.3277C28.5242 17.2783 28.4115 17.204 28.317 17.1096L26.0584 14.8509C25.1376 13.9305 23.889 13.4134 22.587 13.4134C21.285 13.4134 20.0364 13.9305 19.1156 14.8509L0.28801 33.6761C0.196707 33.7673 0.124274 33.8756 0.0748554 33.9948C0.0254364 34.114 0 34.2418 0 34.3709C0 34.4999 0.0254364 34.6277 0.0748554 34.7469C0.124274 34.8661 0.196707 34.9744 0.28801 35.0656L19.9282 54.7058C20.0194 54.7971 20.1277 54.8696 20.2469 54.919C20.3662 54.9684 20.4939 54.9939 20.623 54.9939C20.752 54.9939 20.8798 54.9684 20.999 54.919C21.1183 54.8696 21.2266 54.7971 21.3178 54.7058L40.1429 35.8782C41.0634 34.9575 41.5805 33.7088 41.5805 32.4068C41.5805 31.1049 41.0634 29.8562 40.1429 28.9354L37.8843 26.6768C37.7898 26.5824 37.7156 26.4696 37.6663 26.3455C37.6169 26.2214 37.5933 26.0886 37.597 25.955C37.6007 25.8216 37.6316 25.6902 37.6877 25.5691C37.7438 25.4479 37.8241 25.3395 37.9236 25.2504L52.941 11.7846L52.9802 11.7478C53.6205 11.1092 54.1284 10.3507 54.475 9.51547C54.8216 8.6803 55 7.78494 55 6.88071C55 5.97647 54.8216 5.08112 54.475 4.24594C54.1284 3.41076 53.6205 2.65217 52.9802 2.01362ZM20.623 52.6215L15.1385 47.137L21.3178 40.9577C21.502 40.7734 21.6055 40.5235 21.6055 40.2629C21.6055 40.0023 21.502 39.7524 21.3178 39.5681C21.1335 39.3839 20.8836 39.2804 20.623 39.2804C20.3624 39.2804 20.1125 39.3839 19.9282 39.5681L13.7489 45.7475L9.2464 41.2449L15.4257 35.0656C15.61 34.8814 15.7135 34.6315 15.7135 34.3709C15.7135 34.1103 15.61 33.8604 15.4257 33.6761C15.2414 33.4918 14.9915 33.3883 14.7309 33.3883C14.4703 33.3883 14.2204 33.4918 14.0362 33.6761L7.85686 39.8554L2.37233 34.3709L14.7309 22.0123L32.9816 40.2629L20.623 52.6215ZM51.6079 10.3288L36.6101 23.7897C36.3126 24.0572 36.0727 24.3825 35.9051 24.7457C35.7374 25.109 35.6455 25.5026 35.6349 25.9025C35.6244 26.3025 35.6954 26.7004 35.8436 27.072C35.9919 27.4436 36.2142 27.7811 36.4972 28.0639L38.7558 30.3225C39.0305 30.5962 39.2484 30.9214 39.3971 31.2795C39.5458 31.6376 39.6223 32.0216 39.6223 32.4093C39.6223 32.797 39.5458 33.181 39.3971 33.5391C39.2484 33.8971 39.0305 34.2224 38.7558 34.4961L34.3711 38.8734L16.1205 20.6227L20.5027 16.238C20.7764 15.9634 21.1016 15.7455 21.4597 15.5968C21.8178 15.4481 22.2017 15.3715 22.5895 15.3715C22.9772 15.3715 23.3611 15.4481 23.7192 15.5968C24.0773 15.7455 24.4025 15.9634 24.6762 16.238L26.9349 18.4967C27.2177 18.7796 27.5552 19.002 27.9268 19.1502C28.2984 19.2985 28.6963 19.3695 29.0962 19.3589C29.4962 19.3483 29.8898 19.2564 30.253 19.0888C30.6163 18.9211 30.9416 18.6812 31.2091 18.3837L44.67 3.38598C45.596 2.49157 46.8363 1.99667 48.1237 2.00785C49.4111 2.01904 50.6426 2.53543 51.553 3.44579C52.4633 4.35615 52.9797 5.58765 52.9909 6.87505C53.0021 8.16245 52.5072 9.40275 51.6128 10.3288H51.6079Z" fill="#E10148"/>
</svg>
