<svg width="120" height="120" viewBox="0 0 120 120" fill="none" xmlns="http://www.w3.org/2000/svg">
<path d="M112.766 47.53C110.544 45.1965 108.211 42.7853 107.211 40.4185C106.294 38.1962 106.249 35.1239 106.199 31.857C106.122 26.8568 106.038 21.1954 102.405 17.5564C98.7712 13.9173 93.1043 13.8395 88.1041 13.7617C84.8373 13.7117 81.7538 13.6673 79.5426 12.7506C77.1758 11.7728 74.7646 9.45599 72.4311 7.22256C68.7198 3.66128 64.8808 0 59.975 0C55.0692 0 51.2301 3.67795 47.5189 7.22256C45.1854 9.44488 42.7742 11.7783 40.4074 12.7784C38.1851 13.6951 35.1127 13.7395 31.8459 13.7895C26.8457 13.8673 21.1843 13.9506 17.5453 17.5841C13.9062 21.2176 13.8395 26.8568 13.7617 31.857C13.7117 35.1239 13.6673 38.2073 12.7506 40.4185C11.7728 42.7853 9.45599 45.1965 7.22256 47.53C3.66128 51.2413 0 55.0803 0 59.9861C0 64.8919 3.67795 68.731 7.22256 72.4422C9.44488 74.7757 11.7783 77.1869 12.7784 79.5537C13.6951 81.776 13.7395 84.8484 13.7895 88.1152C13.8673 93.1154 13.9506 98.7768 17.5841 102.416C21.2176 106.055 26.8846 106.133 31.8848 106.21C35.1516 106.26 38.2351 106.305 40.4463 107.222C42.8131 108.199 45.2243 110.516 47.5578 112.75C51.269 116.311 55.1081 119.972 60.0139 119.972C64.9197 119.972 68.7587 116.294 72.47 112.75C74.8035 110.527 77.2147 108.194 79.5815 107.194C81.8038 106.277 84.8761 106.233 88.143 106.183C93.1432 106.105 98.8046 106.022 102.444 102.388C106.083 98.7546 106.16 93.0876 106.238 88.0874C106.288 84.8206 106.333 81.7371 107.249 79.5259C108.227 77.1591 110.544 74.7479 112.777 72.4145C116.339 68.7032 120 64.8641 120 59.9583C120 55.0525 116.311 51.2413 112.766 47.53ZM109.555 69.3643C107.033 71.9922 104.421 74.7146 103.127 77.8536C101.888 80.8482 101.832 84.5206 101.777 88.0485C101.71 92.6043 101.644 96.9378 99.2824 99.2713C96.9212 101.605 92.6154 101.699 88.0596 101.766C84.5206 101.821 80.8371 101.877 77.8647 103.116C74.7257 104.41 72.0033 107.005 69.3754 109.544C66.1475 112.627 63.1085 115.544 59.9861 115.544C56.8637 115.544 53.8247 112.627 50.6079 109.544C47.98 107.022 45.2576 104.41 42.1186 103.116C39.124 101.877 35.4516 101.821 31.9237 101.766C27.3679 101.699 23.0622 101.632 20.701 99.2713C18.3397 96.91 18.2731 92.6043 18.2064 88.0485C18.1508 84.5095 18.0953 80.826 16.8563 77.8536C15.5618 74.7146 12.9673 71.9922 10.4283 69.3643C7.34478 66.1475 4.42798 63.1085 4.42798 59.9861C4.42798 56.8637 7.34478 53.8247 10.4283 50.6079C12.9506 47.98 15.5618 45.2576 16.8563 42.1186C18.0953 39.124 18.1508 35.4516 18.2064 31.9237C18.2731 27.3679 18.3397 23.0622 20.701 20.701C23.0622 18.3397 27.3679 18.2731 31.9237 18.2064C35.4628 18.1508 39.1463 18.0953 42.1186 16.8563C45.2576 15.5618 47.98 12.9673 50.6079 10.4283C53.8247 7.34478 56.8637 4.42798 59.9861 4.42798C63.1085 4.42798 66.1475 7.34478 69.3643 10.4283C71.9922 12.9506 74.7146 15.5618 77.8536 16.8563C80.8482 18.0953 84.5206 18.1508 88.0485 18.2064C92.6043 18.2731 96.9378 18.3397 99.2713 20.701C101.605 23.0622 101.699 27.3679 101.766 31.9237C101.821 35.4628 101.877 39.1463 103.116 42.1186C104.41 45.2576 107.005 47.98 109.544 50.6079C112.627 53.8247 115.544 56.8637 115.544 59.9861C115.544 63.1085 112.627 66.1475 109.544 69.3643H109.555ZM83.7928 45.0799C83.9994 45.2863 84.1633 45.5314 84.2751 45.8011C84.387 46.0709 84.4445 46.3601 84.4445 46.6522C84.4445 46.9442 84.387 47.2334 84.2751 47.5032C84.1633 47.773 83.9994 48.0181 83.7928 48.2245L52.6802 79.337C52.4738 79.5436 52.2287 79.7076 51.9589 79.8194C51.6892 79.9312 51.4 79.9888 51.1079 79.9888C50.8159 79.9888 50.5267 79.9312 50.2569 79.8194C49.9871 79.7076 49.742 79.5436 49.5356 79.337L36.2017 66.0031C35.7847 65.5861 35.5504 65.0205 35.5504 64.4308C35.5504 63.841 35.7847 63.2755 36.2017 62.8585C36.6187 62.4415 37.1842 62.2072 37.774 62.2072C38.3637 62.2072 38.9293 62.4415 39.3463 62.8585L51.0968 74.6201L80.6371 45.0799C80.8435 44.8732 81.0886 44.7093 81.3583 44.5975C81.6281 44.4856 81.9173 44.4281 82.2094 44.4281C82.5014 44.4281 82.7906 44.4856 83.0604 44.5975C83.3302 44.7093 83.5753 44.8732 83.7817 45.0799H83.7928Z" fill="#E10148"/>
</svg>
