<svg width="62" height="55" viewBox="0 0 62 55" fill="none" xmlns="http://www.w3.org/2000/svg">
<path d="M60.4427 17.9781C59.9048 17.3691 59.2435 16.8815 58.5026 16.5476C57.7618 16.2137 56.9584 16.0413 56.1458 16.0417H38.9583V10.3125C38.9583 7.57746 37.8718 4.95443 35.9379 3.02046C34.0039 1.08649 31.3809 2.93765e-07 28.6458 2.93765e-07C28.433 -0.00015211 28.2243 0.058998 28.0431 0.170818C27.862 0.282637 27.7156 0.442705 27.6203 0.633073L16.4799 22.9167H3.4375C2.52582 22.9167 1.65148 23.2788 1.00682 23.9235C0.362164 24.5681 0 25.4425 0 26.3542V51.5625C0 52.4742 0.362164 53.3485 1.00682 53.9932C1.65148 54.6378 2.52582 55 3.4375 55H52.7083C54.105 55.0003 55.4536 54.4904 56.5008 53.5662C57.5479 52.642 58.2214 51.3671 58.3945 49.9813L61.832 22.4813C61.933 21.6751 61.8613 20.8566 61.6218 20.0802C61.3823 19.3038 60.9804 18.5873 60.4427 17.9781ZM16.0417 52.7083H3.4375C3.13361 52.7083 2.84216 52.5876 2.62727 52.3727C2.41239 52.1578 2.29167 51.8664 2.29167 51.5625V26.3542C2.29167 26.0503 2.41239 25.7588 2.62727 25.5439C2.84216 25.3291 3.13361 25.2083 3.4375 25.2083H16.0417V52.7083ZM59.5576 22.1977L56.1201 49.6977C56.016 50.5291 55.6119 51.2939 54.9836 51.8483C54.3554 52.4027 53.5462 52.7085 52.7083 52.7083H18.3333V24.3318L29.3391 2.32031C31.339 2.49382 33.2012 3.41099 34.5579 4.89068C35.9146 6.37038 36.667 8.30501 36.6667 10.3125V17.1875C36.6667 17.4914 36.7874 17.7828 37.0023 17.9977C37.2172 18.2126 37.5086 18.3333 37.8125 18.3333H56.1458C56.6334 18.3332 57.1153 18.4368 57.5598 18.6372C58.0042 18.8376 58.4009 19.1303 58.7236 19.4958C59.0462 19.8612 59.2875 20.2911 59.4312 20.757C59.575 21.2228 59.6181 21.7139 59.5576 22.1977Z" fill="#E10148"/>
</svg>
