<svg width="60" height="60" viewBox="0 0 60 60" fill="none" xmlns="http://www.w3.org/2000/svg">
<path d="M59.0239 15.6137L44.3894 0.98023C44.0797 0.66953 43.7118 0.423007 43.3067 0.254798C42.9016 0.0865877 42.4672 0 42.0285 0C41.5899 0 41.1555 0.0865877 40.7504 0.254798C40.3453 0.423007 39.9773 0.66953 39.6677 0.98023L0.980298 39.6733C0.669577 39.9829 0.423037 40.3508 0.254815 40.7559C0.0865938 41.161 0 41.5953 0 42.0339C0 42.4726 0.0865938 42.9069 0.254815 43.312C0.423037 43.7171 0.669577 44.085 0.980298 44.3946L15.6148 59.0198C15.9244 59.3305 16.2924 59.577 16.6975 59.7452C17.1026 59.9134 17.537 60 17.9756 60C18.4143 60 18.8487 59.9134 19.2538 59.7452C19.6589 59.577 20.0268 59.3305 20.3365 59.0198L59.0239 20.3267C59.6489 19.7017 60 18.8541 60 17.9702C60 17.0864 59.6489 16.2387 59.0239 15.6137ZM57.4518 18.7548L18.7561 57.4478C18.5478 57.6556 18.2657 57.7723 17.9715 57.7723C17.6773 57.7723 17.3951 57.6556 17.1868 57.4478L2.55235 42.8144C2.34458 42.6061 2.2279 42.3239 2.2279 42.0298C2.2279 41.7356 2.34458 41.4535 2.55235 41.2452L12.2263 31.5719L20.3282 39.6733C20.4314 39.7765 20.5539 39.8583 20.6888 39.9142C20.8237 39.9701 20.9682 39.9988 21.1142 39.9988C21.2602 39.9988 21.4047 39.9701 21.5396 39.9142C21.6744 39.8583 21.797 39.7765 21.9002 39.6733C22.0034 39.57 22.0853 39.4475 22.1412 39.3127C22.197 39.1778 22.2258 39.0333 22.2258 38.8873C22.2258 38.7413 22.197 38.5968 22.1412 38.4619C22.0853 38.3271 22.0034 38.2045 21.9002 38.1013L13.7955 30L21.1142 22.6847L29.2161 30.786C29.4245 30.9944 29.7073 31.1115 30.0021 31.1115C30.2969 31.1115 30.5796 30.9944 30.7881 30.786C30.9966 30.5775 31.1137 30.2948 31.1137 30C31.1137 29.7052 30.9966 29.4225 30.7881 29.214L22.6835 21.1127L30.0021 13.7974L38.104 21.8987C38.2072 22.0019 38.3297 22.0838 38.4646 22.1396C38.5995 22.1955 38.744 22.2242 38.89 22.2242C39.036 22.2242 39.1805 22.1955 39.3154 22.1396C39.4503 22.0838 39.5728 22.0019 39.676 21.8987C39.7792 21.7955 39.8611 21.6729 39.917 21.5381C39.9729 21.4032 40.0016 21.2587 40.0016 21.1127C40.0016 20.9667 39.9729 20.8222 39.917 20.6873C39.8611 20.5525 39.7792 20.43 39.676 20.3267L31.5741 12.2254L41.2481 2.55217C41.4563 2.34441 41.7385 2.22774 42.0327 2.22774C42.3269 2.22774 42.6091 2.34441 42.8173 2.55217L57.4518 17.1856C57.6596 17.3939 57.7763 17.6761 57.7763 17.9702C57.7763 18.2644 57.6596 18.5465 57.4518 18.7548Z" fill="#E10148"/>
</svg>
