<svg width="58" height="55" viewBox="0 0 58 55" fill="none" xmlns="http://www.w3.org/2000/svg">
<path d="M56.9588 20.7639C56.7714 20.168 56.4098 19.6419 55.9205 19.2535C55.4313 18.8651 54.8369 18.6322 54.214 18.5849L38.4934 17.2257C38.3023 17.208 38.1197 17.1385 37.965 17.0249C37.8104 16.9112 37.6895 16.7576 37.6155 16.5805L31.4727 1.94412C31.2327 1.36837 30.8277 0.876533 30.3086 0.530571C29.7896 0.18461 29.1798 0 28.556 0C27.9323 0 27.3224 0.18461 26.8034 0.530571C26.2844 0.876533 25.8793 1.36837 25.6393 1.94412L19.5045 16.5805C19.4304 16.7576 19.3096 16.9112 19.155 17.0249C19.0003 17.1385 18.8176 17.208 18.6265 17.2257L2.9139 18.5849C2.28979 18.6361 1.69477 18.8708 1.20376 19.2594C0.712762 19.6481 0.34773 20.1733 0.154632 20.769C-0.0384654 21.3647 -0.0509952 22.0042 0.118621 22.607C0.288237 23.2098 0.632416 23.7489 1.10782 24.1565L13.0338 34.562C13.1827 34.6896 13.2932 34.8561 13.353 35.0429C13.4128 35.2297 13.4194 35.4294 13.3722 35.6197L9.78917 51.0917C9.64151 51.7022 9.68025 52.343 9.90037 52.9312C10.1205 53.5195 10.5119 54.0283 11.0241 54.3919C11.5247 54.7615 12.1247 54.9725 12.7465 54.9975C13.3683 55.0225 13.9833 54.8603 14.512 54.532L28.0245 46.3346C28.1867 46.2347 28.3735 46.1818 28.564 46.1818C28.7544 46.1818 28.9412 46.2347 29.1034 46.3346L42.616 54.532C43.1501 54.8522 43.7667 55.0081 44.3889 54.9803C45.011 54.9526 45.6112 54.7423 46.1148 54.3758C46.6183 54.0093 47.0028 53.5028 47.2205 52.9193C47.4381 52.3358 47.4792 51.7011 47.3387 51.0944L43.7636 35.6144C43.7164 35.4241 43.7231 35.2244 43.7828 35.0376C43.8426 34.8508 43.9531 34.6843 44.1021 34.5567L56.028 24.1512C56.5027 23.7434 56.8448 23.2031 57.0106 22.5997C57.1765 21.9962 57.1584 21.357 56.9588 20.7639ZM54.6371 22.562L42.7111 32.9675C42.2746 33.3462 41.9497 33.8371 41.7717 34.387C41.5937 34.9369 41.5692 35.525 41.701 36.0878L45.2762 51.5624C45.3261 51.7676 45.3135 51.983 45.24 52.1809C45.1665 52.3788 45.0354 52.5502 44.8636 52.673C44.6987 52.7954 44.5007 52.8651 44.2954 52.8732C44.0902 52.8812 43.8874 52.8271 43.7133 52.718L30.2008 44.5206C29.7079 44.2196 29.1415 44.0604 28.564 44.0604C27.9864 44.0604 27.4201 44.2196 26.9271 44.5206L13.4146 52.718C13.2406 52.8271 13.0377 52.8812 12.8325 52.8732C12.6273 52.8651 12.4292 52.7954 12.2643 52.673C12.0925 52.5502 11.9614 52.3788 11.8879 52.1809C11.8144 51.983 11.8018 51.7676 11.8518 51.5624L15.4269 36.0825C15.5587 35.5197 15.5342 34.9316 15.3562 34.3817C15.1782 33.8318 14.8534 33.341 14.4168 32.9622L2.49081 22.562C2.33026 22.4242 2.2147 22.2415 2.15908 22.0374C2.10346 21.8333 2.11032 21.6172 2.17877 21.417C2.2426 21.2201 2.36281 21.0462 2.52451 20.9169C2.6862 20.7877 2.88228 20.7087 3.08843 20.6898L18.809 19.3306C19.3839 19.2794 19.9339 19.0723 20.3999 18.7317C20.8658 18.3911 21.23 17.9298 21.4533 17.3976L27.5935 2.75857C27.6762 2.57088 27.8118 2.41129 27.9836 2.29926C28.1555 2.18723 28.3562 2.12758 28.5613 2.12758C28.7664 2.12758 28.9671 2.18723 29.139 2.29926C29.3108 2.41129 29.4464 2.57088 29.5291 2.75857L35.6693 17.3976C35.8926 17.9298 36.2568 18.3911 36.7228 18.7317C37.1887 19.0723 37.7387 19.2794 38.3136 19.3306L54.0342 20.6898C54.2403 20.7087 54.4364 20.7877 54.5981 20.9169C54.7598 21.0462 54.88 21.2201 54.9438 21.417C55.0129 21.6167 55.0206 21.8324 54.9659 22.0365C54.9113 22.2406 54.7967 22.4236 54.6371 22.562Z" fill="#E10148"/>
</svg>
