<svg width="91" height="95" viewBox="0 0 91 95" fill="none" xmlns="http://www.w3.org/2000/svg">
<g filter="url(#filter0_dd_749_1976)">
<path d="M53.0008 51.9C53.0008 52.1917 53.1166 52.4715 53.3229 52.6778C53.5292 52.8841 53.809 53 54.1008 53L64.6442 53L54.989 62.6552C53.8682 63.7824 52.535 64.6761 51.0664 65.2846C49.5979 65.893 48.0233 66.2042 46.4338 66.2L35.321 66.2C35.0429 64.2732 34.0453 62.5233 32.529 61.3025C31.0127 60.0816 29.0903 59.4804 27.1486 59.6198C25.2069 59.7592 23.39 60.6289 22.0637 62.0538C20.7374 63.4788 20 65.3533 20 67.3C20 69.2467 20.7374 71.1212 22.0637 72.5461C23.39 73.9711 25.2069 74.8408 27.1486 74.9802C29.0903 75.1196 31.0127 74.5184 32.529 73.2975C34.0453 72.0766 35.0429 70.3267 35.321 68.4L46.4338 68.4C48.3124 68.4051 50.1735 68.0376 51.9092 67.3187C53.6448 66.5998 55.2207 65.5438 56.5455 64.2117L66.2007 54.5565L66.2007 65.1C66.2007 65.3917 66.3166 65.6715 66.5229 65.8778C66.7292 66.0841 67.009 66.2 67.3007 66.2C67.5925 66.2 67.8723 66.0841 68.0786 65.8778C68.2849 65.6715 68.4007 65.3917 68.4007 65.1L68.4007 51.9C68.4007 51.6083 68.2849 51.3285 68.0786 51.1222C67.8723 50.9159 67.5925 50.8 67.3007 50.8L54.1008 50.8C53.809 50.8 53.5292 50.9159 53.3229 51.1222C53.1166 51.3285 53.0008 51.6083 53.0008 51.9ZM27.7008 72.8C26.613 72.8 25.5496 72.4774 24.6451 71.8731C23.7407 71.2687 23.0357 70.4097 22.6194 69.4047C22.2032 68.3998 22.0942 67.2939 22.3065 66.227C22.5187 65.1601 23.0425 64.1801 23.8117 63.4109C24.5809 62.6417 25.5609 62.1179 26.6278 61.9057C27.6947 61.6935 28.8005 61.8024 29.8055 62.2187C30.8105 62.6349 31.6695 63.3399 32.2738 64.2444C32.8782 65.1488 33.2008 66.2122 33.2008 67.3C33.2008 68.7587 32.6213 70.1576 31.5899 71.1891C30.5584 72.2205 29.1595 72.8 27.7008 72.8ZM55.2805 26.6L44.1678 26.6C42.2891 26.5948 40.4281 26.9624 38.6924 27.6813C36.9567 28.4002 35.3808 29.4562 34.056 30.7883L24.4008 40.4435L24.4008 29.9C24.4008 29.6083 24.2849 29.3285 24.0786 29.1222C23.8723 28.9159 23.5925 28.8 23.3008 28.8C23.009 28.8 22.7292 28.9159 22.523 29.1222C22.3167 29.3285 22.2008 29.6083 22.2008 29.9L22.2008 43.1C22.2008 43.3917 22.3167 43.6715 22.523 43.8778C22.7292 44.0841 23.009 44.2 23.3008 44.2L36.5008 44.2C36.7925 44.2 37.0723 44.0841 37.2786 43.8778C37.4849 43.6715 37.6008 43.3917 37.6008 43.1C37.6008 42.8083 37.4849 42.5285 37.2786 42.3222C37.0723 42.1159 36.7925 42 36.5008 42L25.9573 42L35.6125 32.3448C36.7333 31.2176 38.0666 30.3239 39.5351 29.7154C41.0036 29.107 42.5782 28.7958 44.1678 28.8L55.2805 28.8C55.5586 30.7268 56.5562 32.4766 58.0725 33.6975C59.5888 34.9184 61.5112 35.5196 63.4529 35.3802C65.3947 35.2408 67.2115 34.3711 68.5378 32.9461C69.8642 31.5212 70.6015 29.6467 70.6015 27.7C70.6015 25.7533 69.8642 23.8788 68.5378 22.4539C67.2115 21.0289 65.3947 20.1592 63.4529 20.0198C61.5112 19.8804 59.5888 20.4816 58.0725 21.7025C56.5562 22.9234 55.5586 24.6733 55.2805 26.6ZM68.4007 27.7C68.4007 28.7878 68.0782 29.8512 67.4738 30.7556C66.8695 31.6601 66.0105 32.3651 65.0055 32.7813C64.0005 33.1976 62.8946 33.3065 61.8277 33.0943C60.7609 32.8821 59.7809 32.3583 59.0117 31.5891C58.2425 30.8199 57.7186 29.8399 57.5064 28.773C57.2942 27.7061 57.4031 26.6002 57.8194 25.5952C58.2357 24.5903 58.9406 23.7313 59.8451 23.1269C60.7496 22.5226 61.813 22.2 62.9007 22.2C64.3594 22.2 65.7584 22.7795 66.7898 23.8109C67.8213 24.8424 68.4007 26.2413 68.4007 27.7Z" fill="#E10148"/>
</g>
<defs>
<filter id="filter0_dd_749_1976" x="0" y="0" width="90.6016" height="95" filterUnits="userSpaceOnUse" color-interpolation-filters="sRGB">
<feFlood flood-opacity="0" result="BackgroundImageFix"/>
<feColorMatrix in="SourceAlpha" type="matrix" values="0 0 0 0 0 0 0 0 0 0 0 0 0 0 0 0 0 0 127 0" result="hardAlpha"/>
<feOffset/>
<feGaussianBlur stdDeviation="2"/>
<feComposite in2="hardAlpha" operator="out"/>
<feColorMatrix type="matrix" values="0 0 0 0 0.882353 0 0 0 0 0.00392157 0 0 0 0 0.282353 0 0 0 1 0"/>
<feBlend mode="normal" in2="BackgroundImageFix" result="effect1_dropShadow_749_1976"/>
<feColorMatrix in="SourceAlpha" type="matrix" values="0 0 0 0 0 0 0 0 0 0 0 0 0 0 0 0 0 0 127 0" result="hardAlpha"/>
<feOffset/>
<feGaussianBlur stdDeviation="10"/>
<feComposite in2="hardAlpha" operator="out"/>
<feColorMatrix type="matrix" values="0 0 0 0 0.882353 0 0 0 0 0.00392157 0 0 0 0 0.282353 0 0 0 1 0"/>
<feBlend mode="normal" in2="effect1_dropShadow_749_1976" result="effect2_dropShadow_749_1976"/>
<feBlend mode="normal" in="SourceGraphic" in2="effect2_dropShadow_749_1976" result="shape"/>
</filter>
</defs>
</svg>
