<svg width="55" height="55" viewBox="0 0 55 55" fill="none" xmlns="http://www.w3.org/2000/svg">
<path d="M55 1.30952V17.0238C55 17.3711 54.862 17.7042 54.6165 17.9498C54.3709 18.1954 54.0378 18.3333 53.6905 18.3333C53.3432 18.3333 53.0101 18.1954 52.7645 17.9498C52.5189 17.7042 52.381 17.3711 52.381 17.0238V4.47202L36.2836 20.5693C36.0379 20.8151 35.7046 20.9531 35.3571 20.9531C35.0096 20.9531 34.6764 20.8151 34.4307 20.5693C34.1849 20.3236 34.0469 19.9904 34.0469 19.6429C34.0469 19.2954 34.1849 18.9621 34.4307 18.7164L50.528 2.61905H37.9762C37.6289 2.61905 37.2958 2.48108 37.0502 2.2355C36.8046 1.98991 36.6667 1.65683 36.6667 1.30952C36.6667 0.962216 36.8046 0.629134 37.0502 0.383551C37.2958 0.137968 37.6289 0 37.9762 0H53.6905C54.0378 0 54.3709 0.137968 54.6165 0.383551C54.862 0.629134 55 0.962216 55 1.30952ZM18.7164 34.4307L2.61905 50.528V37.9762C2.61905 37.6289 2.48108 37.2958 2.2355 37.0502C1.98991 36.8046 1.65683 36.6667 1.30952 36.6667C0.962216 36.6667 0.629134 36.8046 0.383551 37.0502C0.137968 37.2958 0 37.6289 0 37.9762V53.6905C0 54.0378 0.137968 54.3709 0.383551 54.6165C0.629134 54.862 0.962216 55 1.30952 55H17.0238C17.3711 55 17.7042 54.862 17.9498 54.6165C18.1954 54.3709 18.3333 54.0378 18.3333 53.6905C18.3333 53.3432 18.1954 53.0101 17.9498 52.7645C17.7042 52.5189 17.3711 52.381 17.0238 52.381H4.47202L20.5693 36.2836C20.8151 36.0379 20.9531 35.7046 20.9531 35.3571C20.9531 35.0096 20.8151 34.6764 20.5693 34.4307C20.3236 34.1849 19.9904 34.0469 19.6429 34.0469C19.2954 34.0469 18.9621 34.1849 18.7164 34.4307ZM53.6905 36.6667C53.3432 36.6667 53.0101 36.8046 52.7645 37.0502C52.5189 37.2958 52.381 37.6289 52.381 37.9762V50.528L36.2836 34.4307C36.0379 34.1849 35.7046 34.0469 35.3571 34.0469C35.0096 34.0469 34.6764 34.1849 34.4307 34.4307C34.1849 34.6764 34.0469 35.0096 34.0469 35.3571C34.0469 35.7046 34.1849 36.0379 34.4307 36.2836L50.528 52.381H37.9762C37.6289 52.381 37.2958 52.5189 37.0502 52.7645C36.8046 53.0101 36.6667 53.3432 36.6667 53.6905C36.6667 54.0378 36.8046 54.3709 37.0502 54.6165C37.2958 54.862 37.6289 55 37.9762 55H53.6905C54.0378 55 54.3709 54.862 54.6165 54.6165C54.862 54.3709 55 54.0378 55 53.6905V37.9762C55 37.6289 54.862 37.2958 54.6165 37.0502C54.3709 36.8046 54.0378 36.6667 53.6905 36.6667ZM4.47202 2.61905H17.0238C17.3711 2.61905 17.7042 2.48108 17.9498 2.2355C18.1954 1.98991 18.3333 1.65683 18.3333 1.30952C18.3333 0.962216 18.1954 0.629134 17.9498 0.383551C17.7042 0.137968 17.3711 0 17.0238 0H1.30952C0.962216 0 0.629134 0.137968 0.383551 0.383551C0.137968 0.629134 0 0.962216 0 1.30952V17.0238C0 17.3711 0.137968 17.7042 0.383551 17.9498C0.629134 18.1954 0.962216 18.3333 1.30952 18.3333C1.65683 18.3333 1.98991 18.1954 2.2355 17.9498C2.48108 17.7042 2.61905 17.3711 2.61905 17.0238V4.47202L18.7164 20.5693C18.838 20.691 18.9825 20.7875 19.1414 20.8534C19.3004 20.9192 19.4708 20.9531 19.6429 20.9531C19.8149 20.9531 19.9853 20.9192 20.1443 20.8534C20.3032 20.7875 20.4477 20.691 20.5693 20.5693C20.691 20.4477 20.7875 20.3032 20.8534 20.1443C20.9192 19.9853 20.9531 19.8149 20.9531 19.6429C20.9531 19.4708 20.9192 19.3004 20.8534 19.1414C20.7875 18.9825 20.691 18.838 20.5693 18.7164L4.47202 2.61905Z" fill="#E10148"/>
</svg>
